<svg width="0" height="0" class="hidden">
  <symbol    xmlns="http://www.w3.org/2000/svg" viewBox="0 0 24 24" id="113">
    <path d="M6.0523 4.60639L5.66212 4.21461C5.27194 3.82283 4.64166 3.83288 4.26148 4.21461L4.25148 4.22466C3.8613 4.61644 3.8613 5.24931 4.25148 5.63105L4.64166 6.02283C5.03183 6.41461 5.65211 6.41461 6.04229 6.02283L6.0523 6.01279C6.44247 5.63105 6.44247 4.98813 6.0523 4.60639V4.60639ZM3.01091 10.9954H1.99045C1.4402 10.9954 1 11.4374 1 11.99V12C1 12.5525 1.4402 12.9945 1.99045 12.9945H3.00091C3.56116 13.0046 4.00136 12.5626 4.00136 12.01V12C4.00136 11.4374 3.56116 10.9954 3.01091 10.9954ZM12.015 1H12.005C11.4447 1 11.0045 1.44201 11.0045 1.99452V2.9589C11.0045 3.51142 11.4447 3.95342 11.995 3.95342H12.005C12.5653 3.96347 13.0055 3.52146 13.0055 2.96895V1.99452C13.0055 1.44201 12.5653 1 12.015 1V1ZM19.7585 4.22466C19.3683 3.83288 18.7381 3.83288 18.3479 4.21461L17.9577 4.60639C17.5675 4.99817 17.5675 5.63105 17.9577 6.01279L17.9677 6.02283C18.3579 6.41461 18.9882 6.41461 19.3684 6.02283L19.7585 5.63105C20.1487 5.23927 20.1487 4.61644 19.7585 4.22466V4.22466ZM17.9477 19.3936L18.3379 19.7854C18.7281 20.1772 19.3583 20.1772 19.7485 19.7854C20.1387 19.3936 20.1387 18.7607 19.7485 18.369L19.3583 17.9772C18.9682 17.5854 18.3379 17.5954 17.9577 17.9772C17.5575 18.379 17.5575 19.0018 17.9477 19.3936ZM20.0086 11.99V12C20.0086 12.5525 20.4488 12.9945 20.9991 12.9945H22.0096C22.5598 12.9945 23 12.5525 23 12V11.99C23 11.4374 22.5598 10.9954 22.0096 10.9954H20.9991C20.4488 10.9954 20.0086 11.4374 20.0086 11.99ZM12.005 5.9726C8.6935 5.9726 6.00227 8.67489 6.00227 12C6.00227 15.3251 8.6935 18.0274 12.005 18.0274C15.3165 18.0274 18.0077 15.3251 18.0077 12C18.0077 8.67489 15.3165 5.9726 12.005 5.9726ZM11.995 23H12.005C12.5553 23 12.9955 22.558 12.9955 22.0055V21.0411C12.9955 20.4886 12.5553 20.0466 12.005 20.0466H11.995C11.4447 20.0466 11.0045 20.4886 11.0045 21.0411V22.0055C11.0045 22.558 11.4447 23 11.995 23ZM4.25148 19.7753C4.64166 20.1671 5.27194 20.1671 5.66212 19.7753L6.0523 19.3836C6.44247 18.9918 6.43247 18.3589 6.0523 17.9772L6.04229 17.9671C5.65211 17.5753 5.02183 17.5753 4.63165 17.9671L4.24147 18.3589C3.8613 18.7607 3.8613 19.3836 4.25148 19.7753Z"  ></path>
  </symbol>
  <symbol    xmlns="http://www.w3.org/2000/svg" viewBox="0 0 24 24" id="116">
    <path d="M3.36667 4.39333L3.10667 4.13333C2.84667 3.87333 2.42667 3.88 2.17333 4.13333L2.16667 4.14C1.90667 4.4 1.90667 4.82 2.16667 5.07333L2.42667 5.33333C2.68667 5.59333 3.1 5.59333 3.36 5.33333L3.36667 5.32667C3.62667 5.07333 3.62667 4.64667 3.36667 4.39333Z"></path>
    <path d="M1.34 8.63333H0.66C0.293333 8.63333 0 8.92667 0 9.29333V9.3C0 9.66667 0.293333 9.96 0.66 9.96H1.33333C1.70667 9.96667 2 9.67333 2 9.30667V9.3C2 8.92667 1.70667 8.63333 1.34 8.63333Z"></path>
    <path d="M7.34 2H7.33333C6.96 2 6.66667 2.29333 6.66667 2.66V3.3C6.66667 3.66667 6.96 3.96 7.32667 3.96H7.33333C7.70667 3.96667 8 3.67333 8 3.30667V2.66C8 2.29333 7.70667 2 7.34 2Z"></path>
    <path d="M12.5 4.14C12.24 3.88 11.82 3.88 11.56 4.13333L11.3 4.39333C11.04 4.65333 11.04 5.07333 11.3 5.32667L11.3067 5.33333C11.5667 5.59333 11.9867 5.59333 12.24 5.33333L12.5 5.07333C12.76 4.81333 12.76 4.4 12.5 4.14Z"  ></path>
    <path d="M7.33333 5.3C5.12667 5.3 3.33333 7.09333 3.33333 9.3C3.33333 10.7304 4.08683 11.9871 5.21798 12.6942C5.75923 11.1263 7.24809 10 9 10C9.06894 10 9.13748 10.0017 9.20557 10.0052C9.49435 8.98028 10.0727 8.07673 10.8468 7.38847C10.1679 6.14492 8.84799 5.3 7.33333 5.3Z"  ></path>
    <path d="M2.16667 14.46C2.42667 14.72 2.84667 14.72 3.10667 14.46L3.36667 14.2C3.62667 13.94 3.62 13.52 3.36667 13.2667L3.36 13.26C3.1 13 2.68 13 2.42 13.26L2.16 13.52C1.90667 13.7867 1.90667 14.2 2.16667 14.46Z"  ></path>
    <path d="M7 21H20C22.2091 21 24 19.2091 24 17C24 15.1238 22.7083 13.5494 20.9657 13.1174C20.9884 12.9147 21 12.7087 21 12.5C21 9.46243 18.5376 7 15.5 7C12.9806 7 10.8568 8.69403 10.2056 11.0052C10.1375 11.0017 10.0689 11 10 11C7.79086 11 6 12.7909 6 15C6 15.0568 6.00118 15.1133 6.00352 15.1695C4.83649 15.5803 4 16.6925 4 18C4 19.6569 5.34315 21 7 21Z"  ></path>
  </symbol>
  <symbol    xmlns="http://www.w3.org/2000/svg" viewBox="0 0 24 24" id="119">
    <path d="M19 20H3C1.34315 20 0 18.6568 0 17C0 15.6762 0.857438 14.5526 2.04725 14.1544C2.01612 13.9408 2 13.7223 2 13.5C2 11.0147 4.01472 8.99999 6.5 8.99999C6.72514 8.99999 6.94642 9.01653 7.16268 9.04844C7.82213 6.15736 10.4091 3.99999 13.5 3.99999C16.9547 3.99999 19.7799 6.69514 19.9877 10.0975C22.2761 10.5561 24 12.5767 24 15C24 17.7614 21.7614 20 19 20Z"  ></path>
  </symbol>
  <symbol    xmlns="http://www.w3.org/2000/svg" viewBox="0 0 24 24" id="122">
    <path d="M19 20H3C1.34315 20 0 18.6568 0 17C0 15.6762 0.857438 14.5526 2.04725 14.1544C2.01612 13.9408 2 13.7223 2 13.5C2 11.0147 4.01472 8.99999 6.5 8.99999C6.72514 8.99999 6.94642 9.01653 7.16268 9.04844C7.82213 6.15736 10.4091 3.99999 13.5 3.99999C16.9547 3.99999 19.7799 6.69514 19.9877 10.0975C22.2761 10.5561 24 12.5767 24 15C24 17.7614 21.7614 20 19 20Z"  ></path>
  </symbol>
  <symbol    xmlns="http://www.w3.org/2000/svg" viewBox="0 0 24 24" id="143">
    <path d="M5 17H18C20.2091 17 22 15.2091 22 13C22 11.1238 20.7083 9.54938 18.9657 9.11736C18.9884 8.9147 19 8.70871 19 8.5C19 5.46243 16.5376 3 13.5 3C10.9806 3 8.85678 4.69403 8.20557 7.00519C8.13748 7.00174 8.06894 7 8 7C5.79086 7 4 8.79086 4 11C4 11.0568 4.00118 11.1133 4.00352 11.1695C2.83649 11.5803 2 12.6925 2 14C2 15.6569 3.34315 17 5 17Z"  ></path>
    <path d="M5 19C4.44772 19 4 19.4477 4 20C4 20.5523 4.44772 21 5 21H19C19.5523 21 20 20.5523 20 20C20 19.4477 19.5523 19 19 19H5Z"  ></path>
  </symbol>
  <symbol    xmlns="http://www.w3.org/2000/svg" viewBox="0 0 24 24" id="176">
    <path d="M3.10667 2.13333L3.36667 2.39333C3.62667 2.64667 3.62667 3.07333 3.36667 3.32667L3.36 3.33333C3.1 3.59333 2.68667 3.59333 2.42667 3.33333L2.16667 3.07333C1.90667 2.82 1.90667 2.4 2.16667 2.14L2.17333 2.13333C2.42667 1.88 2.84667 1.87333 3.10667 2.13333Z"  ></path>
    <path d="M0.66 6.63333H1.34C1.70667 6.63333 2 6.92667 2 7.3V7.30667C2 7.67333 1.70667 7.96667 1.33333 7.96H0.66C0.293333 7.96 0 7.66667 0 7.3V7.29333C0 6.92667 0.293333 6.63333 0.66 6.63333Z"  ></path>
    <path d="M7.33333 0H7.34C7.70667 0 8 0.293333 8 0.66V1.30667C8 1.67333 7.70667 1.96667 7.33333 1.96H7.32667C6.96 1.96 6.66667 1.66667 6.66667 1.3V0.66C6.66667 0.293333 6.96 0 7.33333 0Z"  ></path>
    <path d="M11.56 2.13333C11.82 1.88 12.24 1.88 12.5 2.14C12.76 2.4 12.76 2.81333 12.5 3.07333L12.24 3.33333C11.9867 3.59333 11.5667 3.59333 11.3067 3.33333L11.3 3.32667C11.04 3.07333 11.04 2.65333 11.3 2.39333L11.56 2.13333Z"  ></path>
    <path d="M3.33333 7.3C3.33333 5.09333 5.12667 3.3 7.33333 3.3C8.84799 3.3 10.1679 4.14492 10.8468 5.38847C10.0727 6.07673 9.49435 6.98028 9.20557 8.00519C9.13748 8.00175 9.06894 8 9 8C7.24809 8 5.75923 9.12627 5.21798 10.6942C4.08683 9.98706 3.33333 8.73036 3.33333 7.3Z"  ></path>
    <path d="M3.10667 12.46C2.84667 12.72 2.42667 12.72 2.16667 12.46C1.90667 12.2 1.90667 11.7867 2.16 11.52L2.42 11.26C2.68 11 3.1 11 3.36 11.26L3.36667 11.2667C3.62 11.52 3.62667 11.94 3.36667 12.2L3.10667 12.46Z"  ></path>
    <path d="M20 19H7C5.34315 19 4 17.6569 4 16C4 14.6925 4.83649 13.5803 6.00352 13.1695C6.00118 13.1133 6 13.0568 6 13C6 10.7909 7.79086 9 10 9C10.0689 9 10.1375 9.00175 10.2056 9.00519C10.8568 6.69403 12.9806 5 15.5 5C18.5376 5 21 7.46243 21 10.5C21 10.7087 20.9884 10.9147 20.9657 11.1174C22.7083 11.5494 24 13.1238 24 15C24 17.2091 22.2091 19 20 19Z"  ></path>
    <path d="M9.98541 23.0292L11.3146 20.3708C11.4282 20.1436 11.6605 20 11.9146 20C12.4133 20 12.7376 20.5248 12.5146 20.9708L11.1854 23.6292C11.0718 23.8564 10.8395 24 10.5854 24C10.0867 24 9.76239 23.4752 9.98541 23.0292Z"  ></path>
    <path d="M12.9854 23.0292L14.3146 20.3708C14.4282 20.1436 14.6605 20 14.9146 20C15.4133 20 15.7376 20.5248 15.5146 20.9708L14.1854 23.6292C14.0718 23.8564 13.8395 24 13.5854 24C13.0867 24 12.7624 23.4752 12.9854 23.0292Z"  ></path>
  </symbol>
  <symbol    xmlns="http://www.w3.org/2000/svg" viewBox="0 0 24 24" id="179">
    <path d="M3.10667 2.13333L3.36667 2.39333C3.62667 2.64667 3.62667 3.07333 3.36667 3.32667L3.36 3.33333C3.1 3.59333 2.68667 3.59333 2.42667 3.33333L2.16667 3.07333C1.90667 2.82 1.90667 2.4 2.16667 2.14L2.17333 2.13333C2.42667 1.88 2.84667 1.87333 3.10667 2.13333Z"  ></path>
    <path d="M0.66 6.63333H1.34C1.70667 6.63333 2 6.92667 2 7.3V7.30667C2 7.67333 1.70667 7.96667 1.33333 7.96H0.66C0.293333 7.96 0 7.66667 0 7.3V7.29333C0 6.92667 0.293333 6.63333 0.66 6.63333Z"  ></path>
    <path d="M7.33333 0H7.34C7.70667 0 8 0.293333 8 0.66V1.30667C8 1.67333 7.70667 1.96667 7.33333 1.96H7.32667C6.96 1.96 6.66667 1.66667 6.66667 1.3V0.66C6.66667 0.293333 6.96 0 7.33333 0Z"  ></path>
    <path d="M11.56 2.13333C11.82 1.88 12.24 1.88 12.5 2.14C12.76 2.4 12.76 2.81333 12.5 3.07333L12.24 3.33333C11.9867 3.59333 11.5667 3.59333 11.3067 3.33333L11.3 3.32667C11.04 3.07333 11.04 2.65333 11.3 2.39333L11.56 2.13333Z"  ></path>
    <path d="M3.33333 7.3C3.33333 5.09333 5.12667 3.3 7.33333 3.3C8.84799 3.3 10.1679 4.14492 10.8468 5.38847C10.0727 6.07673 9.49435 6.98028 9.20557 8.00519C9.13748 8.00175 9.06894 8 9 8C7.24809 8 5.75923 9.12627 5.21798 10.6942C4.08683 9.98706 3.33333 8.73036 3.33333 7.3Z"  ></path>
    <path d="M3.10667 12.46C2.84667 12.72 2.42667 12.72 2.16667 12.46C1.90667 12.2 1.90667 11.7867 2.16 11.52L2.42 11.26C2.68 11 3.1 11 3.36 11.26L3.36667 11.2667C3.62 11.52 3.62667 11.94 3.36667 12.2L3.10667 12.46Z"  ></path>
    <path d="M20 19H7C5.34315 19 4 17.6569 4 16C4 14.6925 4.83649 13.5803 6.00352 13.1695C6.00118 13.1133 6 13.0568 6 13C6 10.7909 7.79086 9 10 9C10.0689 9 10.1375 9.00175 10.2056 9.00519C10.8568 6.69403 12.9806 5 15.5 5C18.5376 5 21 7.46243 21 10.5C21 10.7087 20.9884 10.9147 20.9657 11.1174C22.7083 11.5494 24 13.1238 24 15C24 17.2091 22.2091 19 20 19Z"  ></path>
    <path d="M9.98541 23.0292L11.3146 20.3708C11.4282 20.1436 11.6605 20 11.9146 20C12.4133 20 12.7376 20.5248 12.5146 20.9708L11.1854 23.6292C11.0718 23.8564 10.8395 24 10.5854 24C10.0867 24 9.76239 23.4752 9.98541 23.0292Z"  ></path>
    <path d="M12.9854 23.0292L14.3146 20.3708C14.4282 20.1436 14.6605 20 14.9146 20C15.4133 20 15.7376 20.5248 15.5146 20.9708L14.1854 23.6292C14.0718 23.8564 13.8395 24 13.5854 24C13.0867 24 12.7624 23.4752 12.9854 23.0292Z"  ></path>
  </symbol>
  <symbol    xmlns="http://www.w3.org/2000/svg" viewBox="0 0 24 24" id="182">
    <path d="M3.36667 2.39333L3.10667 2.13333C2.84667 1.87333 2.42667 1.88 2.17333 2.13333L2.16667 2.14C1.90667 2.4 1.90667 2.82 2.16667 3.07333L2.42667 3.33333C2.68667 3.59333 3.1 3.59333 3.36 3.33333L3.36667 3.32667C3.62667 3.07333 3.62667 2.64667 3.36667 2.39333Z"  ></path>
    <path d="M1.34 6.63333H0.66C0.293333 6.63333 0 6.92667 0 7.29333V7.3C0 7.66667 0.293333 7.96 0.66 7.96H1.33333C1.70667 7.96667 2 7.67333 2 7.30667V7.3C2 6.92667 1.70667 6.63333 1.34 6.63333Z"  ></path>
    <path d="M7.34 0H7.33333C6.96 0 6.66667 0.293333 6.66667 0.66V1.3C6.66667 1.66667 6.96 1.96 7.32667 1.96H7.33333C7.70667 1.96667 8 1.67333 8 1.30667V0.66C8 0.293333 7.70667 0 7.34 0Z"  ></path>
    <path d="M12.5 2.14C12.24 1.88 11.82 1.88 11.56 2.13333L11.3 2.39333C11.04 2.65333 11.04 3.07333 11.3 3.32667L11.3067 3.33333C11.5667 3.59333 11.9867 3.59333 12.24 3.33333L12.5 3.07333C12.76 2.81333 12.76 2.4 12.5 2.14Z"  ></path>
    <path d="M7.33333 3.3C5.12667 3.3 3.33333 5.09333 3.33333 7.3C3.33333 8.73036 4.08683 9.98706 5.21798 10.6942C5.75923 9.12627 7.24809 8 9 8C9.06894 8 9.13748 8.00175 9.20557 8.00519C9.49435 6.98028 10.0727 6.07673 10.8468 5.38847C10.1679 4.14492 8.84799 3.3 7.33333 3.3Z"  ></path>
    <path d="M2.16667 12.46C2.42667 12.72 2.84667 12.72 3.10667 12.46L3.36667 12.2C3.62667 11.94 3.62 11.52 3.36667 11.2667L3.36 11.26C3.1 11 2.68 11 2.42 11.26L2.16 11.52C1.90667 11.7867 1.90667 12.2 2.16667 12.46Z"  ></path>
    <path d="M7 19H20C22.2091 19 24 17.2091 24 15C24 13.1238 22.7083 11.5494 20.9657 11.1174C20.9884 10.9147 21 10.7087 21 10.5C21 7.46243 18.5376 5 15.5 5C12.9806 5 10.8568 6.69403 10.2056 9.00519C10.1375 9.00175 10.0689 9 10 9C7.79086 9 6 10.7909 6 13C6 13.0568 6.00118 13.1133 6.00352 13.1695C4.83649 13.5803 4 14.6925 4 16C4 17.6569 5.34315 19 7 19Z"  ></path>
    <path d="M8.81459 20.3708L7.48541 23.0292C7.2624 23.4752 7.58673 24 8.08541 24C8.3395 24 8.57178 23.8564 8.68541 23.6292L10.0146 20.9708C10.2376 20.5248 9.91327 20 9.41459 20C9.1605 20 8.92822 20.1436 8.81459 20.3708Z"  ></path>
    <path d="M11.8146 20.3708L10.4854 23.0292C10.2624 23.4752 10.5867 24 11.0854 24C11.3395 24 11.5718 23.8564 11.6854 23.6292L13.0146 20.9708C13.2376 20.5248 12.9133 20 12.4146 20C12.1605 20 11.9282 20.1436 11.8146 20.3708Z"  ></path>
    <path d="M16.5517 24H15.4483L15.5586 22.7778L14.5517 23.4861L14 22.5139L15.1034 22L14 21.4861L14.5517 20.5139L15.5586 21.2222L15.4483 20H16.5517L16.4414 21.2222L17.4483 20.5139L18 21.4861L16.8966 22L18 22.5139L17.4483 23.4861L16.4414 22.7778L16.5517 24Z"  ></path>
  </symbol>
  <symbol    xmlns="http://www.w3.org/2000/svg" viewBox="0 0 24 24" id="185">
    <g clip-path="url(#clip0_2_3071)">
      <path d="M7.33333 0H7.34C7.70667 0 8 0.293333 8 0.66V1.30667C8 1.67333 7.70667 1.96667 7.33333 1.96H7.32667C6.96 1.96 6.66667 1.66667 6.66667 1.3V0.66C6.66667 0.293333 6.96 0 7.33333 0Z"  ></path>
      <path d="M3.36667 2.39333L3.10667 2.13333C2.84667 1.87333 2.42667 1.88 2.17333 2.13333L2.16667 2.14C1.90667 2.4 1.90667 2.82 2.16667 3.07333L2.42667 3.33333C2.68667 3.59333 3.1 3.59333 3.36 3.33333L3.36667 3.32667C3.62667 3.07333 3.62667 2.64667 3.36667 2.39333Z"  ></path>
      <path d="M1.34 6.63333H0.66C0.293333 6.63333 0 6.92667 0 7.29333V7.3C0 7.66667 0.293333 7.96 0.66 7.96H1.33333C1.70667 7.96667 2 7.67333 2 7.30667V7.3C2 6.92667 1.70667 6.63333 1.34 6.63333Z"  ></path>
      <path d="M12.5 2.14C12.24 1.88 11.82 1.88 11.56 2.13333L11.3 2.39333C11.04 2.65333 11.04 3.07333 11.3 3.32667L11.3067 3.33333C11.5667 3.59333 11.9867 3.59333 12.24 3.33333L12.5 3.07333C12.76 2.81333 12.76 2.4 12.5 2.14Z"  ></path>
      <path d="M3.33333 7.3C3.33333 5.09333 5.12667 3.3 7.33333 3.3C8.84799 3.3 10.1679 4.14492 10.8468 5.38847C10.0727 6.07673 9.49435 6.98028 9.20557 8.00519C9.13748 8.00175 9.06894 8 9 8C7.24809 8 5.75923 9.12627 5.21798 10.6942C4.08683 9.98706 3.33333 8.73036 3.33333 7.3Z"  ></path>
      <path d="M2.16667 12.46C2.42667 12.72 2.84667 12.72 3.10667 12.46L3.36667 12.2C3.62667 11.94 3.62 11.52 3.36667 11.2667L3.36 11.26C3.1 11 2.68 11 2.42 11.26L2.16 11.52C1.90667 11.7867 1.90667 12.2 2.16667 12.46Z"  ></path>
      <path d="M20 19H7C5.34315 19 4 17.6569 4 16C4 14.6925 4.83649 13.5803 6.00352 13.1695C6.00118 13.1133 6 13.0568 6 13C6 10.7909 7.79086 9 10 9C10.0689 9 10.1375 9.00175 10.2056 9.00519C10.8568 6.69403 12.9806 5 15.5 5C18.5376 5 21 7.46243 21 10.5C21 10.7087 20.9884 10.9147 20.9657 11.1174C22.7083 11.5494 24 13.1238 24 15C24 17.2091 22.2091 19 20 19Z"  ></path>
      <path d="M11.191 20H9.80903C9.43733 20 9.19559 20.3912 9.36181 20.7236L10.5 23L11.6382 20.7236C11.8044 20.3912 11.5627 20 11.191 20Z"  ></path>
      <path d="M12.2081 22.3757L12.8919 20.3243C12.9565 20.1306 13.1377 20 13.3419 20C13.6657 20 13.8943 20.3172 13.7919 20.6243L13.1081 22.6757C13.0436 22.8694 12.8623 23 12.6581 23C12.3344 23 12.1057 22.6828 12.2081 22.3757Z"  ></path>
      <path d="M14.2081 22.3757L14.8919 20.3243C14.9565 20.1306 15.1377 20 15.3419 20C15.6657 20 15.8943 20.3172 15.7919 20.6243L15.1081 22.6757C15.0436 22.8694 14.8623 23 14.6581 23C14.3344 23 14.1057 22.6828 14.2081 22.3757Z"  ></path>
      <path d="M16.8919 20.3243L16.2081 22.3757C16.1057 22.6828 16.3344 23 16.6581 23C16.8623 23 17.0436 22.8694 17.1081 22.6757L17.7919 20.6243C17.8943 20.3172 17.6657 20 17.3419 20C17.1377 20 16.9565 20.1306 16.8919 20.3243Z"  ></path>
    </g>
    <defs>
      <clipPath id="clip0_2_3071">
        <rect width="24" height="24"  ></rect>
      </clipPath>
    </defs>
  </symbol>
  <symbol    xmlns="http://www.w3.org/2000/svg" viewBox="0 0 24 24" id="200">
    <path d="M3.10667 2.13333L3.36667 2.39333C3.62667 2.64667 3.62667 3.07333 3.36667 3.32667L3.36 3.33333C3.1 3.59333 2.68667 3.59333 2.42667 3.33333L2.16667 3.07333C1.90667 2.82 1.90667 2.4 2.16667 2.14L2.17333 2.13333C2.42667 1.88 2.84667 1.87333 3.10667 2.13333Z"  ></path>
    <path d="M0.66 6.63333H1.34C1.70667 6.63333 2 6.92667 2 7.3V7.30667C2 7.67333 1.70667 7.96667 1.33333 7.96H0.66C0.293333 7.96 0 7.66667 0 7.3V7.29333C0 6.92667 0.293333 6.63333 0.66 6.63333Z"  ></path>
    <path d="M7.33333 0H7.34C7.70667 0 8 0.293333 8 0.66V1.30667C8 1.67333 7.70667 1.96667 7.33333 1.96H7.32667C6.96 1.96 6.66667 1.66667 6.66667 1.3V0.66C6.66667 0.293333 6.96 0 7.33333 0Z"  ></path>
    <path d="M11.56 2.13333C11.82 1.88 12.24 1.88 12.5 2.14C12.76 2.4 12.76 2.81333 12.5 3.07333L12.24 3.33333C11.9867 3.59333 11.5667 3.59333 11.3067 3.33333L11.3 3.32667C11.04 3.07333 11.04 2.65333 11.3 2.39333L11.56 2.13333Z"  ></path>
    <path d="M3.33333 7.3C3.33333 5.09333 5.12667 3.3 7.33333 3.3C8.84799 3.3 10.1679 4.14492 10.8468 5.38847C10.0727 6.07673 9.49435 6.98028 9.20557 8.00519C9.13748 8.00175 9.06894 8 9 8C7.24809 8 5.75923 9.12627 5.21798 10.6942C4.08683 9.98706 3.33333 8.73036 3.33333 7.3Z"  ></path>
    <path d="M3.10667 12.46C2.84667 12.72 2.42667 12.72 2.16667 12.46C1.90667 12.2 1.90667 11.7867 2.16 11.52L2.42 11.26C2.68 11 3.1 11 3.36 11.26L3.36667 11.2667C3.62 11.52 3.62667 11.94 3.36667 12.2L3.10667 12.46Z"  ></path>
    <path d="M20 19H17.0089L17.8682 17.4961C18.2492 16.8295 17.7678 16 17 16H16V12C16 10.9745 14.6405 10.6135 14.1318 11.5039L9.84825 19H7C5.34315 19 4 17.6569 4 16C4 14.6925 4.83649 13.5803 6.00352 13.1695C6.00118 13.1133 6 13.0568 6 13C6 10.7909 7.79086 9 10 9C10.0689 9 10.1375 9.00175 10.2056 9.00519C10.8568 6.69403 12.9806 5 15.5 5C18.5376 5 21 7.46243 21 10.5C21 10.7087 20.9884 10.9147 20.9657 11.1174C22.7083 11.5494 24 13.1238 24 15C24 17.2091 22.2091 19 20 19Z"  ></path>
    <path d="M11 19H13V24L17 17H15V12L11 19Z"  ></path>
  </symbol>
  <symbol    xmlns="http://www.w3.org/2000/svg" viewBox="0 0 24 24" id="227">
    <path d="M18 17H5C3.34315 17 2 15.6569 2 14C2 12.6925 2.83649 11.5803 4.00352 11.1695C4.00118 11.1133 4 11.0568 4 11C4 8.79086 5.79086 7 8 7C8.06894 7 8.13748 7.00174 8.20557 7.00519C8.85678 4.69403 10.9806 3 13.5 3C16.5376 3 19 5.46243 19 8.5C19 8.70871 18.9884 8.9147 18.9657 9.11736C20.7083 9.54938 22 11.1238 22 13C22 15.2091 20.2091 17 18 17Z"  ></path>
    <path d="M8.55172 22L8.44138 20.7778L9.44828 21.4861L10 20.5139L8.89655 20L10 19.4861L9.44828 18.5139L8.44138 19.2222L8.55172 18H7.44828L7.55862 19.2222L6.55172 18.5139L6 19.4861L7.10345 20L6 20.5139L6.55172 21.4861L7.55862 20.7778L7.44828 22H8.55172Z"  ></path>
    <path d="M11.5 18.5C11.2239 18.5 11 18.7239 11 19C11 19.2761 11.2239 19.5 11.5 19.5H17C17.2761 19.5 17.5 19.2761 17.5 19C17.5 18.7239 17.2761 18.5 17 18.5H11.5Z"  ></path>
    <path d="M11.5 20.5C11.2239 20.5 11 20.7239 11 21C11 21.2761 11.2239 21.5 11.5 21.5H16C16.2761 21.5 16.5 21.2761 16.5 21C16.5 20.7239 16.2761 20.5 16 20.5H11.5Z"  ></path>
  </symbol>
  <symbol    xmlns="http://www.w3.org/2000/svg" viewBox="0 0 24 24" id="230">
    <path d="M5 17H18C20.2091 17 22 15.2091 22 13C22 11.1238 20.7083 9.54938 18.9657 9.11736C18.9884 8.9147 19 8.70871 19 8.5C19 5.46243 16.5376 3 13.5 3C10.9806 3 8.85678 4.69403 8.20557 7.00519C8.13748 7.00174 8.06894 7 8 7C5.79086 7 4 8.79086 4 11C4 11.0568 4.00118 11.1133 4.00352 11.1695C2.83649 11.5803 2 12.6925 2 14C2 15.6569 3.34315 17 5 17Z"  ></path>
    <path d="M11.5517 22H10.4483L10.5586 20.7778L9.55172 21.4861L9 20.5139L10.1034 20L9 19.4861L9.55172 18.5139L10.5586 19.2222L10.4483 18H11.5517L11.4414 19.2222L12.4483 18.5139L13 19.4861L11.8966 20L13 20.5139L12.4483 21.4861L11.4414 20.7778L11.5517 22Z"  ></path>
    <path d="M5.44828 22H6.55172L6.44138 20.7778L7.44828 21.4861L8 20.5139L6.89655 20L8 19.4861L7.44828 18.5139L6.44138 19.2222L6.55172 18H5.44828L5.55862 19.2222L4.55172 18.5139L4 19.4861L5.10345 20L4 20.5139L4.55172 21.4861L5.55862 20.7778L5.44828 22Z"  ></path>
    <path d="M14.5 18.5C14.2239 18.5 14 18.7239 14 19C14 19.2761 14.2239 19.5 14.5 19.5H20C20.2761 19.5 20.5 19.2761 20.5 19C20.5 18.7239 20.2761 18.5 20 18.5H14.5Z"  ></path>
    <path d="M14.5 20.5C14.2239 20.5 14 20.7239 14 21C14 21.2761 14.2239 21.5 14.5 21.5H19C19.2761 21.5 19.5 21.2761 19.5 21C19.5 20.7239 19.2761 20.5 19 20.5H14.5Z"  ></path>
  </symbol>
  <symbol    xmlns="http://www.w3.org/2000/svg" viewBox="0 0 24 24" id="248">
    <path d="M5 17H18C20.2091 17 22 15.2091 22 13C22 11.1238 20.7083 9.54938 18.9657 9.11736C18.9884 8.9147 19 8.70871 19 8.5C19 5.46243 16.5376 3 13.5 3C10.9806 3 8.85678 4.69403 8.20557 7.00519C8.13748 7.00174 8.06894 7 8 7C5.79086 7 4 8.79086 4 11C4 11.0568 4.00118 11.1133 4.00352 11.1695C2.83649 11.5803 2 12.6925 2 14C2 15.6569 3.34315 17 5 17Z"  ></path>
    <path d="M5 18C4.72386 18 4.5 18.2239 4.5 18.5C4.5 18.7761 4.72386 19 5 19H19C19.2761 19 19.5 18.7761 19.5 18.5C19.5 18.2239 19.2761 18 19 18H5Z"  ></path>
    <path d="M5 20C4.72386 20 4.5 20.2239 4.5 20.5C4.5 20.7761 4.72386 21 5 21H19C19.2761 21 19.5 20.7761 19.5 20.5C19.5 20.2239 19.2761 20 19 20H5Z"  ></path>
  </symbol>
  <symbol    xmlns="http://www.w3.org/2000/svg" viewBox="0 0 24 24" id="260">
    <path d="M18 17H5C3.34315 17 2 15.6569 2 14C2 12.6925 2.83649 11.5803 4.00352 11.1695C4.00118 11.1133 4 11.0568 4 11C4 8.79086 5.79086 7 8 7C8.06894 7 8.13748 7.00174 8.20557 7.00519C8.85678 4.69403 10.9806 3 13.5 3C16.5376 3 19 5.46243 19 8.5C19 8.70871 18.9884 8.9147 18.9657 9.11736C20.7083 9.54938 22 11.1238 22 13C22 15.2091 20.2091 17 18 17Z"  ></path>
    <path d="M8.5 18.5C8.5 18.2239 8.72386 18 9 18H19C19.2761 18 19.5 18.2239 19.5 18.5C19.5 18.7761 19.2761 19 19 19H9C8.72386 19 8.5 18.7761 8.5 18.5Z"  ></path>
    <path d="M7.5 20.5C7.5 20.2239 7.72386 20 8 20H19C19.2761 20 19.5 20.2239 19.5 20.5C19.5 20.7761 19.2761 21 19 21H8C7.72386 21 7.5 20.7761 7.5 20.5Z"  ></path>
    <path d="M7.1382 18.7236L6 21L4.8618 18.7236C4.69558 18.3912 4.93733 18 5.30902 18H6.69098C7.06267 18 7.30442 18.3912 7.1382 18.7236Z"  ></path>
  </symbol>
  <symbol    xmlns="http://www.w3.org/2000/svg" viewBox="0 0 24 24" id="263">
    <path d="M5 17H18C20.2091 17 22 15.2091 22 13C22 11.1238 20.7083 9.54938 18.9657 9.11736C18.9884 8.9147 19 8.70871 19 8.5C19 5.46243 16.5376 3 13.5 3C10.9806 3 8.85678 4.69403 8.20557 7.00519C8.13748 7.00174 8.06894 7 8 7C5.79086 7 4 8.79086 4 11C4 11.0568 4.00118 11.1133 4.00352 11.1695C2.83649 11.5803 2 12.6925 2 14C2 15.6569 3.34315 17 5 17Z"  ></path>
    <path d="M9.34189 18C9.66565 18 9.89427 18.3172 9.79189 18.6243L9.10811 20.6757C9.04355 20.8694 8.86229 21 8.65811 21C8.33435 21 8.10573 20.6828 8.20811 20.3757L8.89189 18.3243C8.95645 18.1306 9.13772 18 9.34189 18Z"  ></path>
    <path d="M11.3419 18C11.1377 18 10.9565 18.1306 10.8919 18.3243L10.2081 20.3757C10.1057 20.6828 10.3343 21 10.6581 21C10.8623 21 11.0435 20.8694 11.1081 20.6757L11.7919 18.6243C11.8943 18.3172 11.6657 18 11.3419 18Z"  ></path>
    <path d="M13.3419 18C13.6657 18 13.8943 18.3172 13.7919 18.6243L13.1081 20.6757C13.0435 20.8694 12.8623 21 12.6581 21C12.3343 21 12.1057 20.6828 12.2081 20.3757L12.8919 18.3243C12.9565 18.1306 13.1377 18 13.3419 18Z"  ></path>
    <path d="M15.3419 18C15.6657 18 15.8943 18.3172 15.7919 18.6243L15.1081 20.6757C15.0435 20.8694 14.8623 21 14.6581 21C14.3343 21 14.1057 20.6828 14.2081 20.3757L14.8919 18.3243C14.9565 18.1306 15.1377 18 15.3419 18Z"  ></path>
  </symbol>
  <symbol    xmlns="http://www.w3.org/2000/svg" viewBox="0 0 24 24" id="266">
    <path d="M5 17H18C20.2091 17 22 15.2091 22 13C22 11.1238 20.7083 9.54938 18.9657 9.11736C18.9884 8.9147 19 8.70871 19 8.5C19 5.46243 16.5376 3 13.5 3C10.9806 3 8.85678 4.69403 8.20557 7.00519C8.13748 7.00174 8.06894 7 8 7C5.79086 7 4 8.79086 4 11C4 11.0568 4.00118 11.1133 4.00352 11.1695C2.83649 11.5803 2 12.6925 2 14C2 15.6569 3.34315 17 5 17Z"  ></path>
    <path d="M9.34189 18C9.66565 18 9.89427 18.3172 9.79189 18.6243L9.10811 20.6757C9.04355 20.8694 8.86229 21 8.65811 21C8.33435 21 8.10573 20.6828 8.20811 20.3757L8.89189 18.3243C8.95645 18.1306 9.13772 18 9.34189 18Z"  ></path>
    <path d="M11.3419 18C11.1377 18 10.9565 18.1306 10.8919 18.3243L10.2081 20.3757C10.1057 20.6828 10.3343 21 10.6581 21C10.8623 21 11.0435 20.8694 11.1081 20.6757L11.7919 18.6243C11.8943 18.3172 11.6657 18 11.3419 18Z"  ></path>
    <path d="M13.3419 18C13.6657 18 13.8943 18.3172 13.7919 18.6243L13.1081 20.6757C13.0435 20.8694 12.8623 21 12.6581 21C12.3343 21 12.1057 20.6828 12.2081 20.3757L12.8919 18.3243C12.9565 18.1306 13.1377 18 13.3419 18Z"  ></path>
    <path d="M15.3419 18C15.6657 18 15.8943 18.3172 15.7919 18.6243L15.1081 20.6757C15.0435 20.8694 14.8623 21 14.6581 21C14.3343 21 14.1057 20.6828 14.2081 20.3757L14.8919 18.3243C14.9565 18.1306 15.1377 18 15.3419 18Z"  ></path>
  </symbol>
  <symbol    xmlns="http://www.w3.org/2000/svg" viewBox="0 0 24 24" id="281">
    <path d="M5 17H18C20.2091 17 22 15.2091 22 13C22 11.1238 20.7083 9.54938 18.9657 9.11736C18.9884 8.9147 19 8.70871 19 8.5C19 5.46243 16.5376 3 13.5 3C10.9806 3 8.85678 4.69403 8.20557 7.00519C8.13748 7.00174 8.06894 7 8 7C5.79086 7 4 8.79086 4 11C4 11.0568 4.00118 11.1133 4.00352 11.1695C2.83649 11.5803 2 12.6925 2 14C2 15.6569 3.34315 17 5 17Z"  ></path>
    <path d="M7.80902 18H9.19098C9.56267 18 9.80442 18.3912 9.6382 18.7236L8.5 21L7.3618 18.7236C7.19558 18.3912 7.43733 18 7.80902 18Z"  ></path>
    <path d="M10.8919 18.3243L10.2081 20.3757C10.1057 20.6828 10.3343 21 10.6581 21C10.8623 21 11.0435 20.8694 11.1081 20.6757L11.7919 18.6243C11.8943 18.3172 11.6657 18 11.3419 18C11.1377 18 10.9565 18.1306 10.8919 18.3243Z"  ></path>
    <path d="M12.2081 20.3757L12.8919 18.3243C12.9565 18.1306 13.1377 18 13.3419 18C13.6657 18 13.8943 18.3172 13.7919 18.6243L13.1081 20.6757C13.0435 20.8694 12.8623 21 12.6581 21C12.3343 21 12.1057 20.6828 12.2081 20.3757Z"  ></path>
    <path d="M14.2081 20.3757L14.8919 18.3243C14.9565 18.1306 15.1377 18 15.3419 18C15.6657 18 15.8943 18.3172 15.7919 18.6243L15.1081 20.6757C15.0435 20.8694 14.8623 21 14.6581 21C14.3343 21 14.1057 20.6828 14.2081 20.3757Z"  ></path>
  </symbol>
  <symbol    xmlns="http://www.w3.org/2000/svg" viewBox="0 0 24 24" id="284">
    <path d="M5 17H18C20.2091 17 22 15.2091 22 13C22 11.1238 20.7083 9.54938 18.9657 9.11736C18.9884 8.9147 19 8.70871 19 8.5C19 5.46243 16.5376 3 13.5 3C10.9806 3 8.85678 4.69403 8.20557 7.00519C8.13748 7.00174 8.06894 7 8 7C5.79086 7 4 8.79086 4 11C4 11.0568 4.00118 11.1133 4.00352 11.1695C2.83649 11.5803 2 12.6925 2 14C2 15.6569 3.34315 17 5 17Z"  ></path>
    <path d="M6.30902 18H7.69098C8.06267 18 8.30442 18.3912 8.1382 18.7236L7 21L5.8618 18.7236C5.69558 18.3912 5.93733 18 6.30902 18Z"  ></path>
    <path d="M9.39189 18.3243L8.70811 20.3757C8.60573 20.6828 8.83435 21 9.15811 21C9.36228 21 9.54355 20.8694 9.60811 20.6757L10.2919 18.6243C10.3943 18.3172 10.1657 18 9.84189 18C9.63771 18 9.45645 18.1306 9.39189 18.3243Z"  ></path>
    <path d="M10.7081 20.3757L11.3919 18.3243C11.4565 18.1306 11.6377 18 11.8419 18C12.1657 18 12.3943 18.3172 12.2919 18.6243L11.6081 20.6757C11.5435 20.8694 11.3623 21 11.1581 21C10.8343 21 10.6057 20.6828 10.7081 20.3757Z"  ></path>
    <path d="M12.7081 20.3757L13.3919 18.3243C13.4565 18.1306 13.6377 18 13.8419 18C14.1657 18 14.3943 18.3172 14.2919 18.6243L13.6081 20.6757C13.5435 20.8694 13.3623 21 13.1581 21C12.8343 21 12.6057 20.6828 12.7081 20.3757Z"  ></path>
    <path d="M14.7081 20.3757L15.3919 18.3243C15.4565 18.1306 15.6377 18 15.8419 18C16.1657 18 16.3943 18.3172 16.2919 18.6243L15.6081 20.6757C15.5435 20.8694 15.3623 21 15.1581 21C14.8343 21 14.6057 20.6828 14.7081 20.3757Z"  ></path>
    <path d="M17.3919 18.3243L16.7081 20.3757C16.6057 20.6828 16.8343 21 17.1581 21C17.3623 21 17.5435 20.8694 17.6081 20.6757L18.2919 18.6243C18.3943 18.3172 18.1657 18 17.8419 18C17.6377 18 17.4565 18.1306 17.3919 18.3243Z"  ></path>
  </symbol>
  <symbol    xmlns="http://www.w3.org/2000/svg" viewBox="0 0 24 24" id="293">
    <path d="M3.10667 2.13333L3.36667 2.39333C3.62667 2.64667 3.62667 3.07333 3.36667 3.32667L3.36 3.33333C3.1 3.59333 2.68667 3.59333 2.42667 3.33333L2.16667 3.07333C1.90667 2.82 1.90667 2.4 2.16667 2.14L2.17333 2.13333C2.42667 1.88 2.84667 1.87333 3.10667 2.13333Z"  ></path>
    <path d="M0.66 6.63333H1.34C1.70667 6.63333 2 6.92667 2 7.3V7.30667C2 7.67333 1.70667 7.96667 1.33333 7.96H0.66C0.293333 7.96 0 7.66667 0 7.3V7.29333C0 6.92667 0.293333 6.63333 0.66 6.63333Z"  ></path>
    <path d="M7.33333 0H7.34C7.70667 0 8 0.293333 8 0.66V1.30667C8 1.67333 7.70667 1.96667 7.33333 1.96H7.32667C6.96 1.96 6.66667 1.66667 6.66667 1.3V0.66C6.66667 0.293333 6.96 0 7.33333 0Z"  ></path>
    <path d="M11.56 2.13333C11.82 1.88 12.24 1.88 12.5 2.14C12.76 2.4 12.76 2.81333 12.5 3.07333L12.24 3.33333C11.9867 3.59333 11.5667 3.59333 11.3067 3.33333L11.3 3.32667C11.04 3.07333 11.04 2.65333 11.3 2.39333L11.56 2.13333Z"  ></path>
    <path d="M3.33333 7.3C3.33333 5.09333 5.12667 3.3 7.33333 3.3C8.84799 3.3 10.1679 4.14492 10.8468 5.38847C10.0727 6.07673 9.49435 6.98028 9.20557 8.00519C9.13748 8.00175 9.06894 8 9 8C7.24809 8 5.75923 9.12627 5.21798 10.6942C4.08683 9.98706 3.33333 8.73036 3.33333 7.3Z"  ></path>
    <path d="M3.10667 12.46C2.84667 12.72 2.42667 12.72 2.16667 12.46C1.90667 12.2 1.90667 11.7867 2.16 11.52L2.42 11.26C2.68 11 3.1 11 3.36 11.26L3.36667 11.2667C3.62 11.52 3.62667 11.94 3.36667 12.2L3.10667 12.46Z"  ></path>
    <path d="M20 19H7C5.34315 19 4 17.6569 4 16C4 14.6925 4.83649 13.5803 6.00352 13.1695C6.00118 13.1133 6 13.0568 6 13C6 10.7909 7.79086 9 10 9C10.0689 9 10.1375 9.00175 10.2056 9.00519C10.8568 6.69403 12.9806 5 15.5 5C18.5376 5 21 7.46243 21 10.5C21 10.7087 20.9884 10.9147 20.9657 11.1174C22.7083 11.5494 24 13.1238 24 15C24 17.2091 22.2091 19 20 19Z"  ></path>
    <path d="M9.98541 23.0292L11.3146 20.3708C11.4282 20.1436 11.6605 20 11.9146 20C12.4133 20 12.7376 20.5248 12.5146 20.9708L11.1854 23.6292C11.0718 23.8564 10.8395 24 10.5854 24C10.0867 24 9.76239 23.4752 9.98541 23.0292Z"  ></path>
    <path d="M12.9854 23.0292L14.3146 20.3708C14.4282 20.1436 14.6605 20 14.9146 20C15.4133 20 15.7376 20.5248 15.5146 20.9708L14.1854 23.6292C14.0718 23.8564 13.8395 24 13.5854 24C13.0867 24 12.7624 23.4752 12.9854 23.0292Z"  ></path>
  </symbol>
  <symbol    xmlns="http://www.w3.org/2000/svg" viewBox="0 0 24 24" id="296">
    <path d="M5 17H18C20.2091 17 22 15.2091 22 13C22 11.1238 20.7083 9.54938 18.9657 9.11736C18.9884 8.9147 19 8.70871 19 8.5C19 5.46243 16.5376 3 13.5 3C10.9806 3 8.85678 4.69403 8.20557 7.00519C8.13748 7.00174 8.06894 7 8 7C5.79086 7 4 8.79086 4 11C4 11.0568 4.00118 11.1133 4.00352 11.1695C2.83649 11.5803 2 12.6925 2 14C2 15.6569 3.34315 17 5 17Z"  ></path>
    <path d="M10.4146 18C10.9133 18 11.2376 18.5248 11.0146 18.9708L9.68541 21.6292C9.57178 21.8564 9.3395 22 9.08541 22C8.58673 22 8.2624 21.4752 8.48541 21.0292L9.81459 18.3708C9.92822 18.1436 10.1605 18 10.4146 18Z"  ></path>
    <path d="M13.4146 18C13.9133 18 14.2376 18.5248 14.0146 18.9708L12.6854 21.6292C12.5718 21.8564 12.3395 22 12.0854 22C11.5867 22 11.2624 21.4752 11.4854 21.0292L12.8146 18.3708C12.9282 18.1436 13.1605 18 13.4146 18Z"  ></path>
  </symbol>
  <symbol    xmlns="http://www.w3.org/2000/svg" viewBox="0 0 24 24" id="299">
    <path d="M3.10667 2.13333L3.36667 2.39333C3.62667 2.64667 3.62667 3.07333 3.36667 3.32667L3.36 3.33333C3.1 3.59333 2.68667 3.59333 2.42667 3.33333L2.16667 3.07333C1.90667 2.82 1.90667 2.4 2.16667 2.14L2.17333 2.13333C2.42667 1.88 2.84667 1.87333 3.10667 2.13333Z"  ></path>
    <path d="M0.66 6.63333H1.34C1.70667 6.63333 2 6.92667 2 7.3V7.30667C2 7.67333 1.70667 7.96667 1.33333 7.96H0.66C0.293333 7.96 0 7.66667 0 7.3V7.29333C0 6.92667 0.293333 6.63333 0.66 6.63333Z"  ></path>
    <path d="M7.33333 0H7.34C7.70667 0 8 0.293333 8 0.66V1.30667C8 1.67333 7.70667 1.96667 7.33333 1.96H7.32667C6.96 1.96 6.66667 1.66667 6.66667 1.3V0.66C6.66667 0.293333 6.96 0 7.33333 0Z"  ></path>
    <path d="M11.56 2.13333C11.82 1.88 12.24 1.88 12.5 2.14C12.76 2.4 12.76 2.81333 12.5 3.07333L12.24 3.33333C11.9867 3.59333 11.5667 3.59333 11.3067 3.33333L11.3 3.32667C11.04 3.07333 11.04 2.65333 11.3 2.39333L11.56 2.13333Z"  ></path>
    <path d="M3.33333 7.3C3.33333 5.09333 5.12667 3.3 7.33333 3.3C8.84799 3.3 10.1679 4.14492 10.8468 5.38847C10.0727 6.07673 9.49435 6.98028 9.20557 8.00519C9.13748 8.00175 9.06894 8 9 8C7.24809 8 5.75923 9.12627 5.21798 10.6942C4.08683 9.98706 3.33333 8.73036 3.33333 7.3Z"  ></path>
    <path d="M3.10667 12.46C2.84667 12.72 2.42667 12.72 2.16667 12.46C1.90667 12.2 1.90667 11.7867 2.16 11.52L2.42 11.26C2.68 11 3.1 11 3.36 11.26L3.36667 11.2667C3.62 11.52 3.62667 11.94 3.36667 12.2L3.10667 12.46Z"  ></path>
    <path d="M20 19H7C5.34315 19 4 17.6569 4 16C4 14.6925 4.83649 13.5803 6.00352 13.1695C6.00118 13.1133 6 13.0568 6 13C6 10.7909 7.79086 9 10 9C10.0689 9 10.1375 9.00175 10.2056 9.00519C10.8568 6.69403 12.9806 5 15.5 5C18.5376 5 21 7.46243 21 10.5C21 10.7087 20.9884 10.9147 20.9657 11.1174C22.7083 11.5494 24 13.1238 24 15C24 17.2091 22.2091 19 20 19Z"  ></path>
    <path d="M9.98541 23.0292L11.3146 20.3708C11.4282 20.1436 11.6605 20 11.9146 20C12.4133 20 12.7376 20.5248 12.5146 20.9708L11.1854 23.6292C11.0718 23.8564 10.8395 24 10.5854 24C10.0867 24 9.76239 23.4752 9.98541 23.0292Z"  ></path>
    <path d="M12.9854 23.0292L14.3146 20.3708C14.4282 20.1436 14.6605 20 14.9146 20C15.4133 20 15.7376 20.5248 15.5146 20.9708L14.1854 23.6292C14.0718 23.8564 13.8395 24 13.5854 24C13.0867 24 12.7624 23.4752 12.9854 23.0292Z"  ></path>
  </symbol>
  <symbol    xmlns="http://www.w3.org/2000/svg" viewBox="0 0 24 24" id="302">
    <path d="M5 17H18C20.2091 17 22 15.2091 22 13C22 11.1238 20.7083 9.54938 18.9657 9.11736C18.9884 8.9147 19 8.70871 19 8.5C19 5.46243 16.5376 3 13.5 3C10.9806 3 8.85678 4.69403 8.20557 7.00519C8.13748 7.00174 8.06894 7 8 7C5.79086 7 4 8.79086 4 11C4 11.0568 4.00118 11.1133 4.00352 11.1695C2.83649 11.5803 2 12.6925 2 14C2 15.6569 3.34315 17 5 17Z"  ></path>
    <path d="M10.4146 18C10.9133 18 11.2376 18.5248 11.0146 18.9708L9.68541 21.6292C9.57178 21.8564 9.3395 22 9.08541 22C8.58673 22 8.2624 21.4752 8.48541 21.0292L9.81459 18.3708C9.92822 18.1436 10.1605 18 10.4146 18Z"  ></path>
    <path d="M13.4146 18C13.9133 18 14.2376 18.5248 14.0146 18.9708L12.6854 21.6292C12.5718 21.8564 12.3395 22 12.0854 22C11.5867 22 11.2624 21.4752 11.4854 21.0292L12.8146 18.3708C12.9282 18.1436 13.1605 18 13.4146 18Z"  ></path>
  </symbol>
  <symbol    xmlns="http://www.w3.org/2000/svg" viewBox="0 0 24 24" id="305">
    <path d="M3.10667 2.13333L3.36667 2.39333C3.62667 2.64667 3.62667 3.07333 3.36667 3.32667L3.36 3.33333C3.1 3.59333 2.68667 3.59333 2.42667 3.33333L2.16667 3.07333C1.90667 2.82 1.90667 2.4 2.16667 2.14L2.17333 2.13333C2.42667 1.88 2.84667 1.87333 3.10667 2.13333Z"  ></path>
    <path d="M0.66 6.63333H1.34C1.70667 6.63333 2 6.92667 2 7.3V7.30667C2 7.67333 1.70667 7.96667 1.33333 7.96H0.66C0.293333 7.96 0 7.66667 0 7.3V7.29333C0 6.92667 0.293333 6.63333 0.66 6.63333Z"  ></path>
    <path d="M7.33333 0H7.34C7.70667 0 8 0.293333 8 0.66V1.30667C8 1.67333 7.70667 1.96667 7.33333 1.96H7.32667C6.96 1.96 6.66667 1.66667 6.66667 1.3V0.66C6.66667 0.293333 6.96 0 7.33333 0Z"  ></path>
    <path d="M11.56 2.13333C11.82 1.88 12.24 1.88 12.5 2.14C12.76 2.4 12.76 2.81333 12.5 3.07333L12.24 3.33333C11.9867 3.59333 11.5667 3.59333 11.3067 3.33333L11.3 3.32667C11.04 3.07333 11.04 2.65333 11.3 2.39333L11.56 2.13333Z"  ></path>
    <path d="M3.33333 7.3C3.33333 5.09333 5.12667 3.3 7.33333 3.3C8.84799 3.3 10.1679 4.14492 10.8468 5.38847C10.0727 6.07673 9.49435 6.98028 9.20557 8.00519C9.13748 8.00175 9.06894 8 9 8C7.24809 8 5.75923 9.12627 5.21798 10.6942C4.08683 9.98706 3.33333 8.73036 3.33333 7.3Z"  ></path>
    <path d="M3.10667 12.46C2.84667 12.72 2.42667 12.72 2.16667 12.46C1.90667 12.2 1.90667 11.7867 2.16 11.52L2.42 11.26C2.68 11 3.1 11 3.36 11.26L3.36667 11.2667C3.62 11.52 3.62667 11.94 3.36667 12.2L3.10667 12.46Z"  ></path>
    <path d="M20 19H7C5.34315 19 4 17.6569 4 16C4 14.6925 4.83649 13.5803 6.00352 13.1695C6.00118 13.1133 6 13.0568 6 13C6 10.7909 7.79086 9 10 9C10.0689 9 10.1375 9.00175 10.2056 9.00519C10.8568 6.69403 12.9806 5 15.5 5C18.5376 5 21 7.46243 21 10.5C21 10.7087 20.9884 10.9147 20.9657 11.1174C22.7083 11.5494 24 13.1238 24 15C24 17.2091 22.2091 19 20 19Z"  ></path>
    <path d="M9.41459 20C9.91327 20 10.2376 20.5248 10.0146 20.9708L8.68541 23.6292C8.57178 23.8564 8.3395 24 8.08541 24C7.58673 24 7.2624 23.4752 7.48541 23.0292L8.81459 20.3708C8.92822 20.1436 9.1605 20 9.41459 20Z"  ></path>
    <path d="M12.4146 20C12.9133 20 13.2376 20.5248 13.0146 20.9708L11.6854 23.6292C11.5718 23.8564 11.3395 24 11.0854 24C10.5867 24 10.2624 23.4752 10.4854 23.0292L11.8146 20.3708C11.9282 20.1436 12.1605 20 12.4146 20Z"  ></path>
    <path d="M18.4146 20C18.1605 20 17.9282 20.1436 17.8146 20.3708L16.4854 23.0292C16.2624 23.4752 16.5867 24 17.0854 24C17.3395 24 17.5718 23.8564 17.6854 23.6292L19.0146 20.9708C19.2376 20.5248 18.9133 20 18.4146 20Z"  ></path>
    <path d="M15.4146 20C15.9133 20 16.2376 20.5248 16.0146 20.9708L14.6854 23.6292C14.5718 23.8564 14.3395 24 14.0854 24C13.5867 24 13.2624 23.4752 13.4854 23.0292L14.8146 20.3708C14.9282 20.1436 15.1605 20 15.4146 20Z"  ></path>
  </symbol>
  <symbol    xmlns="http://www.w3.org/2000/svg" viewBox="0 0 24 24" id="308">
    <path d="M5 17H18C20.2091 17 22 15.2091 22 13C22 11.1238 20.7083 9.54938 18.9657 9.11736C18.9884 8.9147 19 8.70871 19 8.5C19 5.46243 16.5376 3 13.5 3C10.9806 3 8.85678 4.69403 8.20557 7.00519C8.13748 7.00174 8.06894 7 8 7C5.79086 7 4 8.79086 4 11C4 11.0568 4.00118 11.1133 4.00352 11.1695C2.83649 11.5803 2 12.6925 2 14C2 15.6569 3.34315 17 5 17Z"  ></path>
    <path d="M7.41459 18C7.1605 18 6.92822 18.1436 6.81459 18.3708L5.48541 21.0292C5.2624 21.4752 5.58673 22 6.08541 22C6.3395 22 6.57178 21.8564 6.68541 21.6292L8.01459 18.9708C8.2376 18.5248 7.91327 18 7.41459 18Z"  ></path>
    <path d="M10.4146 18C10.9133 18 11.2376 18.5248 11.0146 18.9708L9.68541 21.6292C9.57178 21.8564 9.3395 22 9.08541 22C8.58673 22 8.2624 21.4752 8.48541 21.0292L9.81459 18.3708C9.92822 18.1436 10.1605 18 10.4146 18Z"  ></path>
    <path d="M16.4146 18C16.9133 18 17.2376 18.5248 17.0146 18.9708L15.6854 21.6292C15.5718 21.8564 15.3395 22 15.0854 22C14.5867 22 14.2624 21.4752 14.4854 21.0292L15.8146 18.3708C15.9282 18.1436 16.1605 18 16.4146 18Z"  ></path>
    <path d="M13.4146 18C13.9133 18 14.2376 18.5248 14.0146 18.9708L12.6854 21.6292C12.5718 21.8564 12.3395 22 12.0854 22C11.5867 22 11.2624 21.4752 11.4854 21.0292L12.8146 18.3708C12.9282 18.1436 13.1605 18 13.4146 18Z"  ></path>
  </symbol>
  <symbol    xmlns="http://www.w3.org/2000/svg" viewBox="0 0 24 24" id="311">
    <path d="M5 17H18C20.2091 17 22 15.2091 22 13C22 11.1238 20.7083 9.54938 18.9657 9.11736C18.9884 8.9147 19 8.70871 19 8.5C19 5.46243 16.5376 3 13.5 3C10.9806 3 8.85678 4.69403 8.20557 7.00519C8.13748 7.00174 8.06894 7 8 7C5.79086 7 4 8.79086 4 11C4 11.0568 4.00118 11.1133 4.00352 11.1695C2.83649 11.5803 2 12.6925 2 14C2 15.6569 3.34315 17 5 17Z"  ></path>
    <path d="M8.19098 18H5.80902C5.43733 18 5.19558 18.3912 5.3618 18.7236L7 22L8.6382 18.7236C8.80442 18.3912 8.56267 18 8.19098 18Z"  ></path>
    <path d="M8.98541 21.0292L10.3146 18.3708C10.4282 18.1436 10.6605 18 10.9146 18C11.4133 18 11.7376 18.5248 11.5146 18.9708L10.1854 21.6292C10.0718 21.8564 9.8395 22 9.58541 22C9.08673 22 8.7624 21.4752 8.98541 21.0292Z"  ></path>
    <path d="M14.9854 21.0292L16.3146 18.3708C16.4282 18.1436 16.6605 18 16.9146 18C17.4133 18 17.7376 18.5248 17.5146 18.9708L16.1854 21.6292C16.0718 21.8564 15.8395 22 15.5854 22C15.0867 22 14.7624 21.4752 14.9854 21.0292Z"  ></path>
    <path d="M11.9854 21.0292L13.3146 18.3708C13.4282 18.1436 13.6605 18 13.9146 18C14.4133 18 14.7376 18.5248 14.5146 18.9708L13.1854 21.6292C13.0718 21.8564 12.8395 22 12.5854 22C12.0867 22 11.7624 21.4752 11.9854 21.0292Z"  ></path>
  </symbol>
  <symbol    xmlns="http://www.w3.org/2000/svg" viewBox="0 0 24 24" id="314">
    <path d="M5 17H18C20.2091 17 22 15.2091 22 13C22 11.1238 20.7083 9.54938 18.9657 9.11736C18.9884 8.9147 19 8.70871 19 8.5C19 5.46243 16.5376 3 13.5 3C10.9806 3 8.85678 4.69403 8.20557 7.00519C8.13748 7.00174 8.06894 7 8 7C5.79086 7 4 8.79086 4 11C4 11.0568 4.00118 11.1133 4.00352 11.1695C2.83649 11.5803 2 12.6925 2 14C2 15.6569 3.34315 17 5 17Z"  ></path>
    <path d="M8.19098 18H5.80902C5.43733 18 5.19558 18.3912 5.3618 18.7236L7 22L8.6382 18.7236C8.80442 18.3912 8.56267 18 8.19098 18Z"  ></path>
    <path d="M8.98541 21.0292L10.3146 18.3708C10.4282 18.1436 10.6605 18 10.9146 18C11.4133 18 11.7376 18.5248 11.5146 18.9708L10.1854 21.6292C10.0718 21.8564 9.8395 22 9.58541 22C9.08673 22 8.7624 21.4752 8.98541 21.0292Z"  ></path>
    <path d="M14.9854 21.0292L16.3146 18.3708C16.4282 18.1436 16.6605 18 16.9146 18C17.4133 18 17.7376 18.5248 17.5146 18.9708L16.1854 21.6292C16.0718 21.8564 15.8395 22 15.5854 22C15.0867 22 14.7624 21.4752 14.9854 21.0292Z"  ></path>
    <path d="M11.9854 21.0292L13.3146 18.3708C13.4282 18.1436 13.6605 18 13.9146 18C14.4133 18 14.7376 18.5248 14.5146 18.9708L13.1854 21.6292C13.0718 21.8564 12.8395 22 12.5854 22C12.0867 22 11.7624 21.4752 11.9854 21.0292Z"  ></path>
  </symbol>
  <symbol    xmlns="http://www.w3.org/2000/svg" viewBox="0 0 24 24" id="317">
    <path d="M18 17H5C3.34315 17 2 15.6569 2 14C2 12.6925 2.83649 11.5803 4.00352 11.1695C4.00118 11.1133 4 11.0568 4 11C4 8.79086 5.79086 7 8 7C8.06894 7 8.13748 7.00174 8.20557 7.00519C8.85678 4.69403 10.9806 3 13.5 3C16.5376 3 19 5.46243 19 8.5C19 8.70871 18.9884 8.9147 18.9657 9.11736C20.7083 9.54938 22 11.1238 22 13C22 15.2091 20.2091 17 18 17Z"  ></path>
    <path d="M9.01459 18.9708C9.2376 18.5248 8.91327 18 8.41459 18C8.1605 18 7.92822 18.1436 7.81459 18.3708L6.48541 21.0292C6.2624 21.4752 6.58673 22 7.08541 22C7.3395 22 7.57178 21.8564 7.68541 21.6292L9.01459 18.9708Z"  ></path>
    <path d="M12.0146 18.9708C12.2376 18.5248 11.9133 18 11.4146 18C11.1605 18 10.9282 18.1436 10.8146 18.3708L9.48541 21.0292C9.2624 21.4752 9.58673 22 10.0854 22C10.3395 22 10.5718 21.8564 10.6854 21.6292L12.0146 18.9708Z"  ></path>
    <path d="M15.5517 22H14.4483L14.5586 20.7778L13.5517 21.4861L13 20.5139L14.1034 20L13 19.4861L13.5517 18.5139L14.5586 19.2222L14.4483 18H15.5517L15.4414 19.2222L16.4483 18.5139L17 19.4861L15.8966 20L17 20.5139L16.4483 21.4861L15.4414 20.7778L15.5517 22Z"  ></path>
  </symbol>
  <symbol    xmlns="http://www.w3.org/2000/svg" viewBox="0 0 24 24" id="320">
    <path d="M18 17H5C3.34315 17 2 15.6569 2 14C2 12.6925 2.83649 11.5803 4.00352 11.1695C4.00118 11.1133 4 11.0568 4 11C4 8.79086 5.79086 7 8 7C8.06894 7 8.13748 7.00174 8.20557 7.00519C8.85678 4.69403 10.9806 3 13.5 3C16.5376 3 19 5.46243 19 8.5C19 8.70871 18.9884 8.9147 18.9657 9.11736C20.7083 9.54938 22 11.1238 22 13C22 15.2091 20.2091 17 18 17Z"  ></path>
    <path d="M9.01459 18.9708C9.2376 18.5248 8.91327 18 8.41459 18C8.1605 18 7.92822 18.1436 7.81459 18.3708L6.48541 21.0292C6.2624 21.4752 6.58673 22 7.08541 22C7.3395 22 7.57178 21.8564 7.68541 21.6292L9.01459 18.9708Z"  ></path>
    <path d="M12.0146 18.9708C12.2376 18.5248 11.9133 18 11.4146 18C11.1605 18 10.9282 18.1436 10.8146 18.3708L9.48541 21.0292C9.2624 21.4752 9.58673 22 10.0854 22C10.3395 22 10.5718 21.8564 10.6854 21.6292L12.0146 18.9708Z"  ></path>
    <path d="M15.5517 22H14.4483L14.5586 20.7778L13.5517 21.4861L13 20.5139L14.1034 20L13 19.4861L13.5517 18.5139L14.5586 19.2222L14.4483 18H15.5517L15.4414 19.2222L16.4483 18.5139L17 19.4861L15.8966 20L17 20.5139L16.4483 21.4861L15.4414 20.7778L15.5517 22Z"  ></path>
  </symbol>
  <symbol    xmlns="http://www.w3.org/2000/svg" viewBox="0 0 24 24" id="323">
    <path d="M3.10667 2.13333L3.36667 2.39333C3.62667 2.64667 3.62667 3.07333 3.36667 3.32667L3.36 3.33333C3.1 3.59333 2.68667 3.59333 2.42667 3.33333L2.16667 3.07333C1.90667 2.82 1.90667 2.4 2.16667 2.14L2.17333 2.13333C2.42667 1.88 2.84667 1.87333 3.10667 2.13333Z"  ></path>
    <path d="M0.66 6.63333H1.34C1.70667 6.63333 2 6.92667 2 7.3V7.30667C2 7.67333 1.70667 7.96667 1.33333 7.96H0.66C0.293333 7.96 0 7.66667 0 7.3V7.29333C0 6.92667 0.293333 6.63333 0.66 6.63333Z"  ></path>
    <path d="M7.33333 0H7.34C7.70667 0 8 0.293333 8 0.66V1.30667C8 1.67333 7.70667 1.96667 7.33333 1.96H7.32667C6.96 1.96 6.66667 1.66667 6.66667 1.3V0.66C6.66667 0.293333 6.96 0 7.33333 0Z"  ></path>
    <path d="M11.56 2.13333C11.82 1.88 12.24 1.88 12.5 2.14C12.76 2.4 12.76 2.81333 12.5 3.07333L12.24 3.33333C11.9867 3.59333 11.5667 3.59333 11.3067 3.33333L11.3 3.32667C11.04 3.07333 11.04 2.65333 11.3 2.39333L11.56 2.13333Z"  ></path>
    <path d="M3.33333 7.3C3.33333 5.09333 5.12667 3.3 7.33333 3.3C8.84799 3.3 10.1679 4.14492 10.8468 5.38847C10.0727 6.07673 9.49435 6.98028 9.20557 8.00519C9.13748 8.00175 9.06894 8 9 8C7.24809 8 5.75923 9.12627 5.21798 10.6942C4.08683 9.98706 3.33333 8.73036 3.33333 7.3Z"  ></path>
    <path d="M3.10667 12.46C2.84667 12.72 2.42667 12.72 2.16667 12.46C1.90667 12.2 1.90667 11.7867 2.16 11.52L2.42 11.26C2.68 11 3.1 11 3.36 11.26L3.36667 11.2667C3.62 11.52 3.62667 11.94 3.36667 12.2L3.10667 12.46Z"  ></path>
    <path d="M20 19H7C5.34315 19 4 17.6569 4 16C4 14.6925 4.83649 13.5803 6.00352 13.1695C6.00118 13.1133 6 13.0568 6 13C6 10.7909 7.79086 9 10 9C10.0689 9 10.1375 9.00175 10.2056 9.00519C10.8568 6.69403 12.9806 5 15.5 5C18.5376 5 21 7.46243 21 10.5C21 10.7087 20.9884 10.9147 20.9657 11.1174C22.7083 11.5494 24 13.1238 24 15C24 17.2091 22.2091 19 20 19Z"  ></path>
    <path d="M14.5517 24H13.4483L13.5586 22.7778L12.5517 23.4861L12 22.5139L13.1034 22L12 21.4861L12.5517 20.5139L13.5586 21.2222L13.4483 20H14.5517L14.4414 21.2222L15.4483 20.5139L16 21.4861L14.8966 22L16 22.5139L15.4483 23.4861L14.4414 22.7778L14.5517 24Z"  ></path>
  </symbol>
  <symbol    xmlns="http://www.w3.org/2000/svg" viewBox="0 0 24 24" id="326">
    <path d="M5 17H18C20.2091 17 22 15.2091 22 13C22 11.1238 20.7083 9.54938 18.9657 9.11736C18.9884 8.9147 19 8.70871 19 8.5C19 5.46243 16.5376 3 13.5 3C10.9806 3 8.85678 4.69403 8.20557 7.00519C8.13748 7.00174 8.06894 7 8 7C5.79086 7 4 8.79086 4 11C4 11.0568 4.00118 11.1133 4.00352 11.1695C2.83649 11.5803 2 12.6925 2 14C2 15.6569 3.34315 17 5 17Z"  ></path>
    <path d="M12.5517 22H11.4483L11.5586 20.7778L10.5517 21.4861L10 20.5139L11.1034 20L10 19.4861L10.5517 18.5139L11.5586 19.2222L11.4483 18H12.5517L12.4414 19.2222L13.4483 18.5139L14 19.4861L12.8966 20L14 20.5139L13.4483 21.4861L12.4414 20.7778L12.5517 22Z"  ></path>
  </symbol>
  <symbol    xmlns="http://www.w3.org/2000/svg" viewBox="0 0 24 24" id="329">
    <path d="M3.10667 2.13333L3.36667 2.39333C3.62667 2.64667 3.62667 3.07333 3.36667 3.32667L3.36 3.33333C3.1 3.59333 2.68667 3.59333 2.42667 3.33333L2.16667 3.07333C1.90667 2.82 1.90667 2.4 2.16667 2.14L2.17333 2.13333C2.42667 1.88 2.84667 1.87333 3.10667 2.13333Z"  ></path>
    <path d="M0.66 6.63333H1.34C1.70667 6.63333 2 6.92667 2 7.3V7.30667C2 7.67333 1.70667 7.96667 1.33333 7.96H0.66C0.293333 7.96 0 7.66667 0 7.3V7.29333C0 6.92667 0.293333 6.63333 0.66 6.63333Z"  ></path>
    <path d="M7.33333 0H7.34C7.70667 0 8 0.293333 8 0.66V1.30667C8 1.67333 7.70667 1.96667 7.33333 1.96H7.32667C6.96 1.96 6.66667 1.66667 6.66667 1.3V0.66C6.66667 0.293333 6.96 0 7.33333 0Z"  ></path>
    <path d="M11.56 2.13333C11.82 1.88 12.24 1.88 12.5 2.14C12.76 2.4 12.76 2.81333 12.5 3.07333L12.24 3.33333C11.9867 3.59333 11.5667 3.59333 11.3067 3.33333L11.3 3.32667C11.04 3.07333 11.04 2.65333 11.3 2.39333L11.56 2.13333Z"  ></path>
    <path d="M3.33333 7.3C3.33333 5.09333 5.12667 3.3 7.33333 3.3C8.84799 3.3 10.1679 4.14492 10.8468 5.38847C10.0727 6.07673 9.49435 6.98028 9.20557 8.00519C9.13748 8.00175 9.06894 8 9 8C7.24809 8 5.75923 9.12627 5.21798 10.6942C4.08683 9.98706 3.33333 8.73036 3.33333 7.3Z"  ></path>
    <path d="M3.10667 12.46C2.84667 12.72 2.42667 12.72 2.16667 12.46C1.90667 12.2 1.90667 11.7867 2.16 11.52L2.42 11.26C2.68 11 3.1 11 3.36 11.26L3.36667 11.2667C3.62 11.52 3.62667 11.94 3.36667 12.2L3.10667 12.46Z"  ></path>
    <path d="M20 19H7C5.34315 19 4 17.6569 4 16C4 14.6925 4.83649 13.5803 6.00352 13.1695C6.00118 13.1133 6 13.0568 6 13C6 10.7909 7.79086 9 10 9C10.0689 9 10.1375 9.00175 10.2056 9.00519C10.8568 6.69403 12.9806 5 15.5 5C18.5376 5 21 7.46243 21 10.5C21 10.7087 20.9884 10.9147 20.9657 11.1174C22.7083 11.5494 24 13.1238 24 15C24 17.2091 22.2091 19 20 19Z"  ></path>
    <path d="M14.5517 24H13.4483L13.5586 22.7778L12.5517 23.4861L12 22.5139L13.1034 22L12 21.4861L12.5517 20.5139L13.5586 21.2222L13.4483 20H14.5517L14.4414 21.2222L15.4483 20.5139L16 21.4861L14.8966 22L16 22.5139L15.4483 23.4861L14.4414 22.7778L14.5517 24Z"  ></path>
  </symbol>
  <symbol    xmlns="http://www.w3.org/2000/svg" viewBox="0 0 24 24" id="332">
    <path d="M5 17H18C20.2091 17 22 15.2091 22 13C22 11.1238 20.7083 9.54938 18.9657 9.11736C18.9884 8.9147 19 8.70871 19 8.5C19 5.46243 16.5376 3 13.5 3C10.9806 3 8.85678 4.69403 8.20557 7.00519C8.13748 7.00174 8.06894 7 8 7C5.79086 7 4 8.79086 4 11C4 11.0568 4.00118 11.1133 4.00352 11.1695C2.83649 11.5803 2 12.6925 2 14C2 15.6569 3.34315 17 5 17Z"  ></path>
    <path d="M12.5517 22H11.4483L11.5586 20.7778L10.5517 21.4861L10 20.5139L11.1034 20L10 19.4861L10.5517 18.5139L11.5586 19.2222L11.4483 18H12.5517L12.4414 19.2222L13.4483 18.5139L14 19.4861L12.8966 20L14 20.5139L13.4483 21.4861L12.4414 20.7778L12.5517 22Z"  ></path>
  </symbol>
  <symbol    xmlns="http://www.w3.org/2000/svg" viewBox="0 0 24 24" id="335">
    <path d="M3.36667 2.39333L3.10667 2.13333C2.84667 1.87333 2.42667 1.88 2.17333 2.13333L2.16667 2.14C1.90667 2.4 1.90667 2.82 2.16667 3.07333L2.42667 3.33333C2.68667 3.59333 3.1 3.59333 3.36 3.33333L3.36667 3.32667C3.62667 3.07333 3.62667 2.64667 3.36667 2.39333Z"  ></path>
    <path d="M1.34 6.63333H0.66C0.293333 6.63333 0 6.92667 0 7.29333V7.3C0 7.66667 0.293333 7.96 0.66 7.96H1.33333C1.70667 7.96667 2 7.67333 2 7.30667V7.3C2 6.92667 1.70667 6.63333 1.34 6.63333Z"  ></path>
    <path d="M7.34 0H7.33333C6.96 0 6.66667 0.293333 6.66667 0.66V1.3C6.66667 1.66667 6.96 1.96 7.32667 1.96H7.33333C7.70667 1.96667 8 1.67333 8 1.30667V0.66C8 0.293333 7.70667 0 7.34 0Z"  ></path>
    <path d="M12.5 2.14C12.24 1.88 11.82 1.88 11.56 2.13333L11.3 2.39333C11.04 2.65333 11.04 3.07333 11.3 3.32667L11.3067 3.33333C11.5667 3.59333 11.9867 3.59333 12.24 3.33333L12.5 3.07333C12.76 2.81333 12.76 2.4 12.5 2.14Z"  ></path>
    <path d="M7.33333 3.3C5.12667 3.3 3.33333 5.09333 3.33333 7.3C3.33333 8.73036 4.08683 9.98706 5.21798 10.6942C5.75923 9.12627 7.24809 8 9 8C9.06894 8 9.13748 8.00175 9.20557 8.00519C9.49435 6.98028 10.0727 6.07673 10.8468 5.38847C10.1679 4.14492 8.84799 3.3 7.33333 3.3Z"  ></path>
    <path d="M2.16667 12.46C2.42667 12.72 2.84667 12.72 3.10667 12.46L3.36667 12.2C3.62667 11.94 3.62 11.52 3.36667 11.2667L3.36 11.26C3.1 11 2.68 11 2.42 11.26L2.16 11.52C1.90667 11.7867 1.90667 12.2 2.16667 12.46Z"  ></path>
    <path d="M7 19H20C22.2091 19 24 17.2091 24 15C24 13.1238 22.7083 11.5494 20.9657 11.1174C20.9884 10.9147 21 10.7087 21 10.5C21 7.46243 18.5376 5 15.5 5C12.9806 5 10.8568 6.69403 10.2056 9.00519C10.1375 9.00175 10.0689 9 10 9C7.79086 9 6 10.7909 6 13C6 13.0568 6.00118 13.1133 6.00352 13.1695C4.83649 13.5803 4 14.6925 4 16C4 17.6569 5.34315 19 7 19Z"  ></path>
    <path d="M10.4483 24H11.5517L11.4414 22.7778L12.4483 23.4861L13 22.5139L11.8966 22L13 21.4861L12.4483 20.5139L11.4414 21.2222L11.5517 20H10.4483L10.5586 21.2222L9.55172 20.5139L9 21.4861L10.1034 22L9 22.5139L9.55172 23.4861L10.5586 22.7778L10.4483 24Z"  ></path>
    <path d="M17.5517 24H16.4483L16.5586 22.7778L15.5517 23.4861L15 22.5139L16.1034 22L15 21.4861L15.5517 20.5139L16.5586 21.2222L16.4483 20H17.5517L17.4414 21.2222L18.4483 20.5139L19 21.4861L17.8966 22L19 22.5139L18.4483 23.4861L17.4414 22.7778L17.5517 24Z"  ></path>
  </symbol>
  <symbol    xmlns="http://www.w3.org/2000/svg" viewBox="0 0 24 24" id="338">
    <path d="M18 17H5C3.34315 17 2 15.6569 2 14C2 12.6925 2.83649 11.5803 4.00352 11.1695C4.00118 11.1133 4 11.0568 4 11C4 8.79086 5.79086 7 8 7C8.06894 7 8.13748 7.00174 8.20557 7.00519C8.85678 4.69403 10.9806 3 13.5 3C16.5376 3 19 5.46243 19 8.5C19 8.70871 18.9884 8.9147 18.9657 9.11736C20.7083 9.54938 22 11.1238 22 13C22 15.2091 20.2091 17 18 17Z"  ></path>
    <path d="M8.44828 22H9.55172L9.44138 20.7778L10.4483 21.4861L11 20.5139L9.89655 20L11 19.4861L10.4483 18.5139L9.44138 19.2222L9.55172 18H8.44828L8.55862 19.2222L7.55172 18.5139L7 19.4861L8.10345 20L7 20.5139L7.55172 21.4861L8.55862 20.7778L8.44828 22Z"  ></path>
    <path d="M15.5517 22H14.4483L14.5586 20.7778L13.5517 21.4861L13 20.5139L14.1034 20L13 19.4861L13.5517 18.5139L14.5586 19.2222L14.4483 18H15.5517L15.4414 19.2222L16.4483 18.5139L17 19.4861L15.8966 20L17 20.5139L16.4483 21.4861L15.4414 20.7778L15.5517 22Z"  ></path>
  </symbol>
  <symbol    xmlns="http://www.w3.org/2000/svg" viewBox="0 0 24 24" id="350">
    <path d="M5 17H18C20.2091 17 22 15.2091 22 13C22 11.1238 20.7083 9.54938 18.9657 9.11736C18.9884 8.9147 19 8.70871 19 8.5C19 5.46243 16.5376 3 13.5 3C10.9806 3 8.85678 4.69403 8.20557 7.00519C8.13748 7.00174 8.06894 7 8 7C5.79086 7 4 8.79086 4 11C4 11.0568 4.00118 11.1133 4.00352 11.1695C2.83649 11.5803 2 12.6925 2 14C2 15.6569 3.34315 17 5 17Z"  ></path>
    <path d="M12 22C12.8284 22 13.5 21.3284 13.5 20.5C13.5 19.6716 12.8284 19 12 19C11.1716 19 10.5 19.6716 10.5 20.5C10.5 21.3284 11.1716 22 12 22Z"  ></path>
  </symbol>
  <symbol    xmlns="http://www.w3.org/2000/svg" viewBox="0 0 24 24" id="353">
    <path d="M3.10667 2.13333L3.36667 2.39333C3.62667 2.64667 3.62667 3.07333 3.36667 3.32667L3.36 3.33333C3.1 3.59333 2.68667 3.59333 2.42667 3.33333L2.16667 3.07333C1.90667 2.82 1.90667 2.4 2.16667 2.14L2.17333 2.13333C2.42667 1.88 2.84667 1.87333 3.10667 2.13333Z"  ></path>
    <path d="M0.66 6.63333H1.34C1.70667 6.63333 2 6.92667 2 7.3V7.30667C2 7.67333 1.70667 7.96667 1.33333 7.96H0.66C0.293333 7.96 0 7.66667 0 7.3V7.29333C0 6.92667 0.293333 6.63333 0.66 6.63333Z"  ></path>
    <path d="M7.33333 0H7.34C7.70667 0 8 0.293333 8 0.66V1.30667C8 1.67333 7.70667 1.96667 7.33333 1.96H7.32667C6.96 1.96 6.66667 1.66667 6.66667 1.3V0.66C6.66667 0.293333 6.96 0 7.33333 0Z"  ></path>
    <path d="M11.56 2.13333C11.82 1.88 12.24 1.88 12.5 2.14C12.76 2.4 12.76 2.81333 12.5 3.07333L12.24 3.33333C11.9867 3.59333 11.5667 3.59333 11.3067 3.33333L11.3 3.32667C11.04 3.07333 11.04 2.65333 11.3 2.39333L11.56 2.13333Z"  ></path>
    <path d="M3.33333 7.3C3.33333 5.09333 5.12667 3.3 7.33333 3.3C8.84799 3.3 10.1679 4.14492 10.8468 5.38847C10.0727 6.07673 9.49435 6.98028 9.20557 8.00519C9.13748 8.00175 9.06894 8 9 8C7.24809 8 5.75923 9.12627 5.21798 10.6942C4.08683 9.98706 3.33333 8.73036 3.33333 7.3Z"  ></path>
    <path d="M3.10667 12.46C2.84667 12.72 2.42667 12.72 2.16667 12.46C1.90667 12.2 1.90667 11.7867 2.16 11.52L2.42 11.26C2.68 11 3.1 11 3.36 11.26L3.36667 11.2667C3.62 11.52 3.62667 11.94 3.36667 12.2L3.10667 12.46Z"  ></path>
    <path d="M20 19H7C5.34315 19 4 17.6569 4 16C4 14.6925 4.83649 13.5803 6.00352 13.1695C6.00118 13.1133 6 13.0568 6 13C6 10.7909 7.79086 9 10 9C10.0689 9 10.1375 9.00175 10.2056 9.00519C10.8568 6.69403 12.9806 5 15.5 5C18.5376 5 21 7.46243 21 10.5C21 10.7087 20.9884 10.9147 20.9657 11.1174C22.7083 11.5494 24 13.1238 24 15C24 17.2091 22.2091 19 20 19Z"  ></path>
    <path d="M9.98541 23.0292L11.3146 20.3708C11.4282 20.1436 11.6605 20 11.9146 20C12.4133 20 12.7376 20.5248 12.5146 20.9708L11.1854 23.6292C11.0718 23.8564 10.8395 24 10.5854 24C10.0867 24 9.76239 23.4752 9.98541 23.0292Z"  ></path>
    <path d="M12.9854 23.0292L14.3146 20.3708C14.4282 20.1436 14.6605 20 14.9146 20C15.4133 20 15.7376 20.5248 15.5146 20.9708L14.1854 23.6292C14.0718 23.8564 13.8395 24 13.5854 24C13.0867 24 12.7624 23.4752 12.9854 23.0292Z"  ></path>
  </symbol>
  <symbol    xmlns="http://www.w3.org/2000/svg" viewBox="0 0 24 24" id="356">
    <path d="M3.10667 2.13333L3.36667 2.39333C3.62667 2.64667 3.62667 3.07333 3.36667 3.32667L3.36 3.33333C3.1 3.59333 2.68667 3.59333 2.42667 3.33333L2.16667 3.07333C1.90667 2.82 1.90667 2.4 2.16667 2.14L2.17333 2.13333C2.42667 1.88 2.84667 1.87333 3.10667 2.13333Z"  ></path>
    <path d="M0.66 6.63333H1.34C1.70667 6.63333 2 6.92667 2 7.3V7.30667C2 7.67333 1.70667 7.96667 1.33333 7.96H0.66C0.293333 7.96 0 7.66667 0 7.3V7.29333C0 6.92667 0.293333 6.63333 0.66 6.63333Z"  ></path>
    <path d="M7.33333 0H7.34C7.70667 0 8 0.293333 8 0.66V1.30667C8 1.67333 7.70667 1.96667 7.33333 1.96H7.32667C6.96 1.96 6.66667 1.66667 6.66667 1.3V0.66C6.66667 0.293333 6.96 0 7.33333 0Z"  ></path>
    <path d="M11.56 2.13333C11.82 1.88 12.24 1.88 12.5 2.14C12.76 2.4 12.76 2.81333 12.5 3.07333L12.24 3.33333C11.9867 3.59333 11.5667 3.59333 11.3067 3.33333L11.3 3.32667C11.04 3.07333 11.04 2.65333 11.3 2.39333L11.56 2.13333Z"  ></path>
    <path d="M3.33333 7.3C3.33333 5.09333 5.12667 3.3 7.33333 3.3C8.84799 3.3 10.1679 4.14492 10.8468 5.38847C10.0727 6.07673 9.49435 6.98028 9.20557 8.00519C9.13748 8.00175 9.06894 8 9 8C7.24809 8 5.75923 9.12627 5.21798 10.6942C4.08683 9.98706 3.33333 8.73036 3.33333 7.3Z"  ></path>
    <path d="M3.10667 12.46C2.84667 12.72 2.42667 12.72 2.16667 12.46C1.90667 12.2 1.90667 11.7867 2.16 11.52L2.42 11.26C2.68 11 3.1 11 3.36 11.26L3.36667 11.2667C3.62 11.52 3.62667 11.94 3.36667 12.2L3.10667 12.46Z"  ></path>
    <path d="M20 19H7C5.34315 19 4 17.6569 4 16C4 14.6925 4.83649 13.5803 6.00352 13.1695C6.00118 13.1133 6 13.0568 6 13C6 10.7909 7.79086 9 10 9C10.0689 9 10.1375 9.00175 10.2056 9.00519C10.8568 6.69403 12.9806 5 15.5 5C18.5376 5 21 7.46243 21 10.5C21 10.7087 20.9884 10.9147 20.9657 11.1174C22.7083 11.5494 24 13.1238 24 15C24 17.2091 22.2091 19 20 19Z"  ></path>
    <path d="M9.41459 20C9.91327 20 10.2376 20.5248 10.0146 20.9708L8.68541 23.6292C8.57178 23.8564 8.3395 24 8.08541 24C7.58673 24 7.2624 23.4752 7.48541 23.0292L8.81459 20.3708C8.92822 20.1436 9.1605 20 9.41459 20Z"  ></path>
    <path d="M12.4146 20C12.9133 20 13.2376 20.5248 13.0146 20.9708L11.6854 23.6292C11.5718 23.8564 11.3395 24 11.0854 24C10.5867 24 10.2624 23.4752 10.4854 23.0292L11.8146 20.3708C11.9282 20.1436 12.1605 20 12.4146 20Z"  ></path>
    <path d="M18.4146 20C18.1605 20 17.9282 20.1436 17.8146 20.3708L16.4854 23.0292C16.2624 23.4752 16.5867 24 17.0854 24C17.3395 24 17.5718 23.8564 17.6854 23.6292L19.0146 20.9708C19.2376 20.5248 18.9133 20 18.4146 20Z"  ></path>
    <path d="M15.4146 20C15.9133 20 16.2376 20.5248 16.0146 20.9708L14.6854 23.6292C14.5718 23.8564 14.3395 24 14.0854 24C13.5867 24 13.2624 23.4752 13.4854 23.0292L14.8146 20.3708C14.9282 20.1436 15.1605 20 15.4146 20Z"  ></path>
  </symbol>
  <symbol    xmlns="http://www.w3.org/2000/svg" viewBox="0 0 24 24" id="359">
    <path d="M3.10667 2.13333L3.36667 2.39333C3.62667 2.64667 3.62667 3.07333 3.36667 3.32667L3.36 3.33333C3.1 3.59333 2.68667 3.59333 2.42667 3.33333L2.16667 3.07333C1.90667 2.82 1.90667 2.4 2.16667 2.14L2.17333 2.13333C2.42667 1.88 2.84667 1.87333 3.10667 2.13333Z"  ></path>
    <path d="M0.66 6.63333H1.34C1.70667 6.63333 2 6.92667 2 7.3V7.30667C2 7.67333 1.70667 7.96667 1.33333 7.96H0.66C0.293333 7.96 0 7.66667 0 7.3V7.29333C0 6.92667 0.293333 6.63333 0.66 6.63333Z"  ></path>
    <path d="M7.33333 0H7.34C7.70667 0 8 0.293333 8 0.66V1.30667C8 1.67333 7.70667 1.96667 7.33333 1.96H7.32667C6.96 1.96 6.66667 1.66667 6.66667 1.3V0.66C6.66667 0.293333 6.96 0 7.33333 0Z"  ></path>
    <path d="M11.56 2.13333C11.82 1.88 12.24 1.88 12.5 2.14C12.76 2.4 12.76 2.81333 12.5 3.07333L12.24 3.33333C11.9867 3.59333 11.5667 3.59333 11.3067 3.33333L11.3 3.32667C11.04 3.07333 11.04 2.65333 11.3 2.39333L11.56 2.13333Z"  ></path>
    <path d="M3.33333 7.3C3.33333 5.09333 5.12667 3.3 7.33333 3.3C8.84799 3.3 10.1679 4.14492 10.8468 5.38847C10.0727 6.07673 9.49435 6.98028 9.20557 8.00519C9.13748 8.00175 9.06894 8 9 8C7.24809 8 5.75923 9.12627 5.21798 10.6942C4.08683 9.98706 3.33333 8.73036 3.33333 7.3Z"  ></path>
    <path d="M3.10667 12.46C2.84667 12.72 2.42667 12.72 2.16667 12.46C1.90667 12.2 1.90667 11.7867 2.16 11.52L2.42 11.26C2.68 11 3.1 11 3.36 11.26L3.36667 11.2667C3.62 11.52 3.62667 11.94 3.36667 12.2L3.10667 12.46Z"  ></path>
    <path d="M20 19H7C5.34315 19 4 17.6569 4 16C4 14.6925 4.83649 13.5803 6.00352 13.1695C6.00118 13.1133 6 13.0568 6 13C6 10.7909 7.79086 9 10 9C10.0689 9 10.1375 9.00175 10.2056 9.00519C10.8568 6.69403 12.9806 5 15.5 5C18.5376 5 21 7.46243 21 10.5C21 10.7087 20.9884 10.9147 20.9657 11.1174C22.7083 11.5494 24 13.1238 24 15C24 17.2091 22.2091 19 20 19Z"  ></path>
    <path d="M7.41459 20C7.1605 20 6.92822 20.1436 6.81459 20.3708L5.48541 23.0292C5.2624 23.4752 5.58673 24 6.08541 24C6.3395 24 6.57178 23.8564 6.68541 23.6292L8.01459 20.9708C8.2376 20.5248 7.91327 20 7.41459 20Z"  ></path>
    <path d="M10.4146 20C10.1605 20 9.92822 20.1436 9.81459 20.3708L8.48541 23.0292C8.26239 23.4752 8.58673 24 9.08541 24C9.3395 24 9.57178 23.8564 9.68541 23.6292L11.0146 20.9708C11.2376 20.5248 10.9133 20 10.4146 20Z"  ></path>
    <path d="M16.4146 20C16.9133 20 17.2376 20.5248 17.0146 20.9708L15.6854 23.6292C15.5718 23.8564 15.3395 24 15.0854 24C14.5867 24 14.2624 23.4752 14.4854 23.0292L15.8146 20.3708C15.9282 20.1436 16.1605 20 16.4146 20Z"  ></path>
    <path d="M19.4146 20C19.1605 20 18.9282 20.1436 18.8146 20.3708L17.4854 23.0292C17.2624 23.4752 17.5867 24 18.0854 24C18.3395 24 18.5718 23.8564 18.6854 23.6292L20.0146 20.9708C20.2376 20.5248 19.9133 20 19.4146 20Z"  ></path>
    <path d="M13.4146 20C13.9133 20 14.2376 20.5248 14.0146 20.9708L12.6854 23.6292C12.5718 23.8564 12.3395 24 12.0854 24C11.5867 24 11.2624 23.4752 11.4854 23.0292L12.8146 20.3708C12.9282 20.1436 13.1605 20 13.4146 20Z"  ></path>
  </symbol>
  <symbol    xmlns="http://www.w3.org/2000/svg" viewBox="0 0 24 24" id="362">
    <path d="M3.36667 2.39333L3.10667 2.13333C2.84667 1.87333 2.42667 1.88 2.17333 2.13333L2.16667 2.14C1.90667 2.4 1.90667 2.82 2.16667 3.07333L2.42667 3.33333C2.68667 3.59333 3.1 3.59333 3.36 3.33333L3.36667 3.32667C3.62667 3.07333 3.62667 2.64667 3.36667 2.39333Z"  ></path>
    <path d="M1.34 6.63333H0.66C0.293333 6.63333 0 6.92667 0 7.29333V7.3C0 7.66667 0.293333 7.96 0.66 7.96H1.33333C1.70667 7.96667 2 7.67333 2 7.30667V7.3C2 6.92667 1.70667 6.63333 1.34 6.63333Z"  ></path>
    <path d="M7.34 0H7.33333C6.96 0 6.66667 0.293333 6.66667 0.66V1.3C6.66667 1.66667 6.96 1.96 7.32667 1.96H7.33333C7.70667 1.96667 8 1.67333 8 1.30667V0.66C8 0.293333 7.70667 0 7.34 0Z"  ></path>
    <path d="M12.5 2.14C12.24 1.88 11.82 1.88 11.56 2.13333L11.3 2.39333C11.04 2.65333 11.04 3.07333 11.3 3.32667L11.3067 3.33333C11.5667 3.59333 11.9867 3.59333 12.24 3.33333L12.5 3.07333C12.76 2.81333 12.76 2.4 12.5 2.14Z"  ></path>
    <path d="M7.33333 3.3C5.12667 3.3 3.33333 5.09333 3.33333 7.3C3.33333 8.73036 4.08683 9.98706 5.21798 10.6942C5.75923 9.12627 7.24809 8 9 8C9.06894 8 9.13748 8.00175 9.20557 8.00519C9.49435 6.98028 10.0727 6.07673 10.8468 5.38847C10.1679 4.14492 8.84799 3.3 7.33333 3.3Z"  ></path>
    <path d="M2.16667 12.46C2.42667 12.72 2.84667 12.72 3.10667 12.46L3.36667 12.2C3.62667 11.94 3.62 11.52 3.36667 11.2667L3.36 11.26C3.1 11 2.68 11 2.42 11.26L2.16 11.52C1.90667 11.7867 1.90667 12.2 2.16667 12.46Z"  ></path>
    <path d="M7 19H20C22.2091 19 24 17.2091 24 15C24 13.1238 22.7083 11.5494 20.9657 11.1174C20.9884 10.9147 21 10.7087 21 10.5C21 7.46243 18.5376 5 15.5 5C12.9806 5 10.8568 6.69403 10.2056 9.00519C10.1375 9.00175 10.0689 9 10 9C7.79086 9 6 10.7909 6 13C6 13.0568 6.00118 13.1133 6.00352 13.1695C4.83649 13.5803 4 14.6925 4 16C4 17.6569 5.34315 19 7 19Z"  ></path>
    <path d="M8.81459 20.3708L7.48541 23.0292C7.2624 23.4752 7.58673 24 8.08541 24C8.3395 24 8.57178 23.8564 8.68541 23.6292L10.0146 20.9708C10.2376 20.5248 9.91327 20 9.41459 20C9.1605 20 8.92822 20.1436 8.81459 20.3708Z"  ></path>
    <path d="M11.8146 20.3708L10.4854 23.0292C10.2624 23.4752 10.5867 24 11.0854 24C11.3395 24 11.5718 23.8564 11.6854 23.6292L13.0146 20.9708C13.2376 20.5248 12.9133 20 12.4146 20C12.1605 20 11.9282 20.1436 11.8146 20.3708Z"  ></path>
    <path d="M16.5517 24H15.4483L15.5586 22.7778L14.5517 23.4861L14 22.5139L15.1034 22L14 21.4861L14.5517 20.5139L15.5586 21.2222L15.4483 20H16.5517L16.4414 21.2222L17.4483 20.5139L18 21.4861L16.8966 22L18 22.5139L17.4483 23.4861L16.4414 22.7778L16.5517 24Z"  ></path>
  </symbol>
  <symbol    xmlns="http://www.w3.org/2000/svg" viewBox="0 0 24 24" id="365">
    <path d="M3.10667 2.13333L3.36667 2.39333C3.62667 2.64667 3.62667 3.07333 3.36667 3.32667L3.36 3.33333C3.1 3.59333 2.68667 3.59333 2.42667 3.33333L2.16667 3.07333C1.90667 2.82 1.90667 2.4 2.16667 2.14L2.17333 2.13333C2.42667 1.88 2.84667 1.87333 3.10667 2.13333Z"  ></path>
    <path d="M0.66 6.63333H1.34C1.70667 6.63333 2 6.92667 2 7.3V7.30667C2 7.67333 1.70667 7.96667 1.33333 7.96H0.66C0.293333 7.96 0 7.66667 0 7.3V7.29333C0 6.92667 0.293333 6.63333 0.66 6.63333Z"  ></path>
    <path d="M7.33333 0H7.34C7.70667 0 8 0.293333 8 0.66V1.30667C8 1.67333 7.70667 1.96667 7.33333 1.96H7.32667C6.96 1.96 6.66667 1.66667 6.66667 1.3V0.66C6.66667 0.293333 6.96 0 7.33333 0Z"  ></path>
    <path d="M11.56 2.13333C11.82 1.88 12.24 1.88 12.5 2.14C12.76 2.4 12.76 2.81333 12.5 3.07333L12.24 3.33333C11.9867 3.59333 11.5667 3.59333 11.3067 3.33333L11.3 3.32667C11.04 3.07333 11.04 2.65333 11.3 2.39333L11.56 2.13333Z"  ></path>
    <path d="M3.33333 7.3C3.33333 5.09333 5.12667 3.3 7.33333 3.3C8.84799 3.3 10.1679 4.14492 10.8468 5.38847C10.0727 6.07673 9.49435 6.98028 9.20557 8.00519C9.13748 8.00175 9.06894 8 9 8C7.24809 8 5.75923 9.12627 5.21798 10.6942C4.08683 9.98706 3.33333 8.73036 3.33333 7.3Z"  ></path>
    <path d="M3.10667 12.46C2.84667 12.72 2.42667 12.72 2.16667 12.46C1.90667 12.2 1.90667 11.7867 2.16 11.52L2.42 11.26C2.68 11 3.1 11 3.36 11.26L3.36667 11.2667C3.62 11.52 3.62667 11.94 3.36667 12.2L3.10667 12.46Z"  ></path>
    <path d="M20 19H7C5.34315 19 4 17.6569 4 16C4 14.6925 4.83649 13.5803 6.00352 13.1695C6.00118 13.1133 6 13.0568 6 13C6 10.7909 7.79086 9 10 9C10.0689 9 10.1375 9.00175 10.2056 9.00519C10.8568 6.69403 12.9806 5 15.5 5C18.5376 5 21 7.46243 21 10.5C21 10.7087 20.9884 10.9147 20.9657 11.1174C22.7083 11.5494 24 13.1238 24 15C24 17.2091 22.2091 19 20 19Z"  ></path>
    <path d="M7.41459 20C7.91327 20 8.23761 20.5248 8.01459 20.9708L6.68541 23.6292C6.57178 23.8564 6.3395 24 6.08541 24C5.58673 24 5.2624 23.4752 5.48541 23.0292L6.81459 20.3708C6.92822 20.1436 7.1605 20 7.41459 20Z"  ></path>
    <path d="M10.4146 20C10.9133 20 11.2376 20.5248 11.0146 20.9708L9.68541 23.6292C9.57178 23.8564 9.3395 24 9.08541 24C8.58673 24 8.2624 23.4752 8.48541 23.0292L9.81459 20.3708C9.92822 20.1436 10.1605 20 10.4146 20Z"  ></path>
    <path d="M13.4483 24H14.5517L14.4414 22.7778L15.4483 23.4861L16 22.5139L14.8966 22L16 21.4861L15.4483 20.5139L14.4414 21.2222L14.5517 20H13.4483L13.5586 21.2222L12.5517 20.5139L12 21.4861L13.1034 22L12 22.5139L12.5517 23.4861L13.5586 22.7778L13.4483 24Z"  ></path>
    <path d="M19.5517 24H18.4483L18.5586 22.7778L17.5517 23.4861L17 22.5139L18.1034 22L17 21.4861L17.5517 20.5139L18.5586 21.2222L18.4483 20H19.5517L19.4414 21.2222L20.4483 20.5139L21 21.4861L19.8966 22L21 22.5139L20.4483 23.4861L19.4414 22.7778L19.5517 24Z"  ></path>
  </symbol>
  <symbol    xmlns="http://www.w3.org/2000/svg" viewBox="0 0 24 24" id="368">
    <path d="M3.10667 2.13333L3.36667 2.39333C3.62667 2.64667 3.62667 3.07333 3.36667 3.32667L3.36 3.33333C3.1 3.59333 2.68667 3.59333 2.42667 3.33333L2.16667 3.07333C1.90667 2.82 1.90667 2.4 2.16667 2.14L2.17333 2.13333C2.42667 1.88 2.84667 1.87333 3.10667 2.13333Z"  ></path>
    <path d="M0.66 6.63333H1.34C1.70667 6.63333 2 6.92667 2 7.3V7.30667C2 7.67333 1.70667 7.96667 1.33333 7.96H0.66C0.293333 7.96 0 7.66667 0 7.3V7.29333C0 6.92667 0.293333 6.63333 0.66 6.63333Z"  ></path>
    <path d="M7.33333 0H7.34C7.70667 0 8 0.293333 8 0.66V1.30667C8 1.67333 7.70667 1.96667 7.33333 1.96H7.32667C6.96 1.96 6.66667 1.66667 6.66667 1.3V0.66C6.66667 0.293333 6.96 0 7.33333 0Z"  ></path>
    <path d="M11.56 2.13333C11.82 1.88 12.24 1.88 12.5 2.14C12.76 2.4 12.76 2.81333 12.5 3.07333L12.24 3.33333C11.9867 3.59333 11.5667 3.59333 11.3067 3.33333L11.3 3.32667C11.04 3.07333 11.04 2.65333 11.3 2.39333L11.56 2.13333Z"  ></path>
    <path d="M3.33333 7.3C3.33333 5.09333 5.12667 3.3 7.33333 3.3C8.84799 3.3 10.1679 4.14492 10.8468 5.38847C10.0727 6.07673 9.49435 6.98028 9.20557 8.00519C9.13748 8.00175 9.06894 8 9 8C7.24809 8 5.75923 9.12627 5.21798 10.6942C4.08683 9.98706 3.33333 8.73036 3.33333 7.3Z"  ></path>
    <path d="M3.10667 12.46C2.84667 12.72 2.42667 12.72 2.16667 12.46C1.90667 12.2 1.90667 11.7867 2.16 11.52L2.42 11.26C2.68 11 3.1 11 3.36 11.26L3.36667 11.2667C3.62 11.52 3.62667 11.94 3.36667 12.2L3.10667 12.46Z"  ></path>
    <path d="M20 19H7C5.34315 19 4 17.6569 4 16C4 14.6925 4.83649 13.5803 6.00352 13.1695C6.00118 13.1133 6 13.0568 6 13C6 10.7909 7.79086 9 10 9C10.0689 9 10.1375 9.00175 10.2056 9.00519C10.8568 6.69403 12.9806 5 15.5 5C18.5376 5 21 7.46243 21 10.5C21 10.7087 20.9884 10.9147 20.9657 11.1174C22.7083 11.5494 24 13.1238 24 15C24 17.2091 22.2091 19 20 19Z"  ></path>
    <path d="M14.5517 24H13.4483L13.5586 22.7778L12.5517 23.4861L12 22.5139L13.1034 22L12 21.4861L12.5517 20.5139L13.5586 21.2222L13.4483 20H14.5517L14.4414 21.2222L15.4483 20.5139L16 21.4861L14.8966 22L16 22.5139L15.4483 23.4861L14.4414 22.7778L14.5517 24Z"  ></path>
  </symbol>
  <symbol    xmlns="http://www.w3.org/2000/svg" viewBox="0 0 24 24" id="371">
    <path d="M3.36667 2.39333L3.10667 2.13333C2.84667 1.87333 2.42667 1.88 2.17333 2.13333L2.16667 2.14C1.90667 2.4 1.90667 2.82 2.16667 3.07333L2.42667 3.33333C2.68667 3.59333 3.1 3.59333 3.36 3.33333L3.36667 3.32667C3.62667 3.07333 3.62667 2.64667 3.36667 2.39333Z"  ></path>
    <path d="M1.34 6.63333H0.66C0.293333 6.63333 0 6.92667 0 7.29333V7.3C0 7.66667 0.293333 7.96 0.66 7.96H1.33333C1.70667 7.96667 2 7.67333 2 7.30667V7.3C2 6.92667 1.70667 6.63333 1.34 6.63333Z"  ></path>
    <path d="M7.34 0H7.33333C6.96 0 6.66667 0.293333 6.66667 0.66V1.3C6.66667 1.66667 6.96 1.96 7.32667 1.96H7.33333C7.70667 1.96667 8 1.67333 8 1.30667V0.66C8 0.293333 7.70667 0 7.34 0Z"  ></path>
    <path d="M12.5 2.14C12.24 1.88 11.82 1.88 11.56 2.13333L11.3 2.39333C11.04 2.65333 11.04 3.07333 11.3 3.32667L11.3067 3.33333C11.5667 3.59333 11.9867 3.59333 12.24 3.33333L12.5 3.07333C12.76 2.81333 12.76 2.4 12.5 2.14Z"  ></path>
    <path d="M7.33333 3.3C5.12667 3.3 3.33333 5.09333 3.33333 7.3C3.33333 8.73036 4.08683 9.98706 5.21798 10.6942C5.75923 9.12627 7.24809 8 9 8C9.06894 8 9.13748 8.00175 9.20557 8.00519C9.49435 6.98028 10.0727 6.07673 10.8468 5.38847C10.1679 4.14492 8.84799 3.3 7.33333 3.3Z"  ></path>
    <path d="M2.16667 12.46C2.42667 12.72 2.84667 12.72 3.10667 12.46L3.36667 12.2C3.62667 11.94 3.62 11.52 3.36667 11.2667L3.36 11.26C3.1 11 2.68 11 2.42 11.26L2.16 11.52C1.90667 11.7867 1.90667 12.2 2.16667 12.46Z"  ></path>
    <path d="M7 19H20C22.2091 19 24 17.2091 24 15C24 13.1238 22.7083 11.5494 20.9657 11.1174C20.9884 10.9147 21 10.7087 21 10.5C21 7.46243 18.5376 5 15.5 5C12.9806 5 10.8568 6.69403 10.2056 9.00519C10.1375 9.00175 10.0689 9 10 9C7.79086 9 6 10.7909 6 13C6 13.0568 6.00118 13.1133 6.00352 13.1695C4.83649 13.5803 4 14.6925 4 16C4 17.6569 5.34315 19 7 19Z"  ></path>
    <path d="M10.4483 24H11.5517L11.4414 22.7778L12.4483 23.4861L13 22.5139L11.8966 22L13 21.4861L12.4483 20.5139L11.4414 21.2222L11.5517 20H10.4483L10.5586 21.2222L9.55172 20.5139L9 21.4861L10.1034 22L9 22.5139L9.55172 23.4861L10.5586 22.7778L10.4483 24Z"  ></path>
    <path d="M17.5517 24H16.4483L16.5586 22.7778L15.5517 23.4861L15 22.5139L16.1034 22L15 21.4861L15.5517 20.5139L16.5586 21.2222L16.4483 20H17.5517L17.4414 21.2222L18.4483 20.5139L19 21.4861L17.8966 22L19 22.5139L18.4483 23.4861L17.4414 22.7778L17.5517 24Z"  ></path>
  </symbol>
  <symbol    xmlns="http://www.w3.org/2000/svg" viewBox="0 0 24 24" id="374">
    <path d="M3.10667 2.13333L3.36667 2.39333C3.62667 2.64667 3.62667 3.07333 3.36667 3.32667L3.36 3.33333C3.1 3.59333 2.68667 3.59333 2.42667 3.33333L2.16667 3.07333C1.90667 2.82 1.90667 2.4 2.16667 2.14L2.17333 2.13333C2.42667 1.88 2.84667 1.87333 3.10667 2.13333Z"  ></path>
    <path d="M0.66 6.63333H1.34C1.70667 6.63333 2 6.92667 2 7.3V7.30667C2 7.67333 1.70667 7.96667 1.33333 7.96H0.66C0.293333 7.96 0 7.66667 0 7.3V7.29333C0 6.92667 0.293333 6.63333 0.66 6.63333Z"  ></path>
    <path d="M7.33333 0H7.34C7.70667 0 8 0.293333 8 0.66V1.30667C8 1.67333 7.70667 1.96667 7.33333 1.96H7.32667C6.96 1.96 6.66667 1.66667 6.66667 1.3V0.66C6.66667 0.293333 6.96 0 7.33333 0Z"  ></path>
    <path d="M11.56 2.13333C11.82 1.88 12.24 1.88 12.5 2.14C12.76 2.4 12.76 2.81333 12.5 3.07333L12.24 3.33333C11.9867 3.59333 11.5667 3.59333 11.3067 3.33333L11.3 3.32667C11.04 3.07333 11.04 2.65333 11.3 2.39333L11.56 2.13333Z"  ></path>
    <path d="M3.33333 7.3C3.33333 5.09333 5.12667 3.3 7.33333 3.3C8.84799 3.3 10.1679 4.14492 10.8468 5.38847C10.0727 6.07673 9.49435 6.98028 9.20557 8.00519C9.13748 8.00175 9.06894 8 9 8C7.24809 8 5.75923 9.12627 5.21798 10.6942C4.08683 9.98706 3.33333 8.73036 3.33333 7.3Z"  ></path>
    <path d="M3.10667 12.46C2.84667 12.72 2.42667 12.72 2.16667 12.46C1.90667 12.2 1.90667 11.7867 2.16 11.52L2.42 11.26C2.68 11 3.1 11 3.36 11.26L3.36667 11.2667C3.62 11.52 3.62667 11.94 3.36667 12.2L3.10667 12.46Z"  ></path>
    <path d="M20 19H7C5.34315 19 4 17.6569 4 16C4 14.6925 4.83649 13.5803 6.00352 13.1695C6.00118 13.1133 6 13.0568 6 13C6 10.7909 7.79086 9 10 9C10.0689 9 10.1375 9.00175 10.2056 9.00519C10.8568 6.69403 12.9806 5 15.5 5C18.5376 5 21 7.46243 21 10.5C21 10.7087 20.9884 10.9147 20.9657 11.1174C22.7083 11.5494 24 13.1238 24 15C24 17.2091 22.2091 19 20 19Z"  ></path>
    <path d="M14 24C14.8284 24 15.5 23.3284 15.5 22.5C15.5 21.6716 14.8284 21 14 21C13.1716 21 12.5 21.6716 12.5 22.5C12.5 23.3284 13.1716 24 14 24Z"  ></path>
  </symbol>
  <symbol    xmlns="http://www.w3.org/2000/svg" viewBox="0 0 24 24" id="377">
    <path d="M3.36667 2.39333L3.10667 2.13333C2.84667 1.87333 2.42667 1.88 2.17333 2.13333L2.16667 2.14C1.90667 2.4 1.90667 2.82 2.16667 3.07333L2.42667 3.33333C2.68667 3.59333 3.1 3.59333 3.36 3.33333L3.36667 3.32667C3.62667 3.07333 3.62667 2.64667 3.36667 2.39333Z"  ></path>
    <path d="M1.34 6.63333H0.66C0.293333 6.63333 0 6.92667 0 7.29333V7.3C0 7.66667 0.293333 7.96 0.66 7.96H1.33333C1.70667 7.96667 2 7.67333 2 7.30667V7.3C2 6.92667 1.70667 6.63333 1.34 6.63333Z"  ></path>
    <path d="M7.34 0H7.33333C6.96 0 6.66667 0.293333 6.66667 0.66V1.3C6.66667 1.66667 6.96 1.96 7.32667 1.96H7.33333C7.70667 1.96667 8 1.67333 8 1.30667V0.66C8 0.293333 7.70667 0 7.34 0Z"  ></path>
    <path d="M12.5 2.14C12.24 1.88 11.82 1.88 11.56 2.13333L11.3 2.39333C11.04 2.65333 11.04 3.07333 11.3 3.32667L11.3067 3.33333C11.5667 3.59333 11.9867 3.59333 12.24 3.33333L12.5 3.07333C12.76 2.81333 12.76 2.4 12.5 2.14Z"  ></path>
    <path d="M7.33333 3.3C5.12667 3.3 3.33333 5.09333 3.33333 7.3C3.33333 8.73036 4.08683 9.98706 5.21798 10.6942C5.75923 9.12627 7.24809 8 9 8C9.06894 8 9.13748 8.00175 9.20557 8.00519C9.49435 6.98028 10.0727 6.07673 10.8468 5.38847C10.1679 4.14492 8.84799 3.3 7.33333 3.3Z"  ></path>
    <path d="M2.16667 12.46C2.42667 12.72 2.84667 12.72 3.10667 12.46L3.36667 12.2C3.62667 11.94 3.62 11.52 3.36667 11.2667L3.36 11.26C3.1 11 2.68 11 2.42 11.26L2.16 11.52C1.90667 11.7867 1.90667 12.2 2.16667 12.46Z"  ></path>
    <path d="M7 19H20C22.2091 19 24 17.2091 24 15C24 13.1238 22.7083 11.5494 20.9657 11.1174C20.9884 10.9147 21 10.7087 21 10.5C21 7.46243 18.5376 5 15.5 5C12.9806 5 10.8568 6.69403 10.2056 9.00519C10.1375 9.00175 10.0689 9 10 9C7.79086 9 6 10.7909 6 13C6 13.0568 6.00118 13.1133 6.00352 13.1695C4.83649 13.5803 4 14.6925 4 16C4 17.6569 5.34315 19 7 19Z"  ></path>
    <path d="M13 22.5C13 23.3284 12.3284 24 11.5 24C10.6716 24 10 23.3284 10 22.5C10 21.6716 10.6716 21 11.5 21C12.3284 21 13 21.6716 13 22.5Z"  ></path>
    <path d="M16.5 24C17.3284 24 18 23.3284 18 22.5C18 21.6716 17.3284 21 16.5 21C15.6716 21 15 21.6716 15 22.5C15 23.3284 15.6716 24 16.5 24Z"  ></path>
  </symbol>
  <symbol    xmlns="http://www.w3.org/2000/svg" viewBox="0 0 24 24" id="386">
    <path d="M3.10667 2.13333L3.36667 2.39333C3.62667 2.64667 3.62667 3.07333 3.36667 3.32667L3.36 3.33333C3.1 3.59333 2.68667 3.59333 2.42667 3.33333L2.16667 3.07333C1.90667 2.82 1.90667 2.4 2.16667 2.14L2.17333 2.13333C2.42667 1.88 2.84667 1.87333 3.10667 2.13333Z"  ></path>
    <path d="M0.66 6.63333H1.34C1.70667 6.63333 2 6.92667 2 7.3V7.30667C2 7.67333 1.70667 7.96667 1.33333 7.96H0.66C0.293333 7.96 0 7.66667 0 7.3V7.29333C0 6.92667 0.293333 6.63333 0.66 6.63333Z"  ></path>
    <path d="M7.33333 0H7.34C7.70667 0 8 0.293333 8 0.66V1.30667C8 1.67333 7.70667 1.96667 7.33333 1.96H7.32667C6.96 1.96 6.66667 1.66667 6.66667 1.3V0.66C6.66667 0.293333 6.96 0 7.33333 0Z"  ></path>
    <path d="M11.56 2.13333C11.82 1.88 12.24 1.88 12.5 2.14C12.76 2.4 12.76 2.81333 12.5 3.07333L12.24 3.33333C11.9867 3.59333 11.5667 3.59333 11.3067 3.33333L11.3 3.32667C11.04 3.07333 11.04 2.65333 11.3 2.39333L11.56 2.13333Z"  ></path>
    <path d="M3.33333 7.3C3.33333 5.09333 5.12667 3.3 7.33333 3.3C8.84799 3.3 10.1679 4.14492 10.8468 5.38847C10.0727 6.07673 9.49435 6.98028 9.20557 8.00519C9.13748 8.00175 9.06894 8 9 8C7.24809 8 5.75923 9.12627 5.21798 10.6942C4.08683 9.98706 3.33333 8.73036 3.33333 7.3Z"  ></path>
    <path d="M3.10667 12.46C2.84667 12.72 2.42667 12.72 2.16667 12.46C1.90667 12.2 1.90667 11.7867 2.16 11.52L2.42 11.26C2.68 11 3.1 11 3.36 11.26L3.36667 11.2667C3.62 11.52 3.62667 11.94 3.36667 12.2L3.10667 12.46Z"  ></path>
    <path d="M20 19H17.0089L17.8682 17.4961C18.2492 16.8295 17.7678 16 17 16H16V12C16 10.9745 14.6405 10.6135 14.1318 11.5039L9.84825 19H7C5.34315 19 4 17.6569 4 16C4 14.6925 4.83649 13.5803 6.00352 13.1695C6.00118 13.1133 6 13.0568 6 13C6 10.7909 7.79086 9 10 9C10.0689 9 10.1375 9.00175 10.2056 9.00519C10.8568 6.69403 12.9806 5 15.5 5C18.5376 5 21 7.46243 21 10.5C21 10.7087 20.9884 10.9147 20.9657 11.1174C22.7083 11.5494 24 13.1238 24 15C24 17.2091 22.2091 19 20 19Z"  ></path>
    <path d="M11 19H13V24L17 17H15V12L11 19Z"  ></path>
  </symbol>
  <symbol    xmlns="http://www.w3.org/2000/svg" viewBox="0 0 24 24" id="389">
    <path d="M15.0089 17H18C20.2091 17 22 15.2091 22 13C22 11.1238 20.7083 9.54938 18.9657 9.11736C18.9884 8.9147 19 8.70871 19 8.5C19 5.46243 16.5376 3 13.5 3C10.9806 3 8.85678 4.69403 8.20557 7.00519C8.13748 7.00174 8.06894 7 8 7C5.79086 7 4 8.79086 4 11C4 11.0568 4.00118 11.1133 4.00352 11.1695C2.83649 11.5803 2 12.6925 2 14C2 15.6569 3.34315 17 5 17H7.84825L12.1318 9.50386C12.6405 8.61351 14 8.97454 14 10V14H15C15.7678 14 16.2492 14.8295 15.8682 15.4961L15.0089 17Z"  ></path>
    <path d="M9 17L13 10V15H15L11 22V17H9Z"  ></path>
  </symbol>
  <symbol    xmlns="http://www.w3.org/2000/svg" viewBox="0 0 24 24" id="392">
    <path d="M3.36667 2.39333L3.10667 2.13333C2.84667 1.87333 2.42667 1.88 2.17333 2.13333L2.16667 2.14C1.90667 2.4 1.90667 2.82 2.16667 3.07333L2.42667 3.33333C2.68667 3.59333 3.1 3.59333 3.36 3.33333L3.36667 3.32667C3.62667 3.07333 3.62667 2.64667 3.36667 2.39333Z"  ></path>
    <path d="M1.34 6.63333H0.66C0.293333 6.63333 0 6.92667 0 7.29333V7.3C0 7.66667 0.293333 7.96 0.66 7.96H1.33333C1.70667 7.96667 2 7.67333 2 7.30667V7.3C2 6.92667 1.70667 6.63333 1.34 6.63333Z"  ></path>
    <path d="M7.34 0H7.33333C6.96 0 6.66667 0.293333 6.66667 0.66V1.3C6.66667 1.66667 6.96 1.96 7.32667 1.96H7.33333C7.70667 1.96667 8 1.67333 8 1.30667V0.66C8 0.293333 7.70667 0 7.34 0Z"  ></path>
    <path d="M12.5 2.14C12.24 1.88 11.82 1.88 11.56 2.13333L11.3 2.39333C11.04 2.65333 11.04 3.07333 11.3 3.32667L11.3067 3.33333C11.5667 3.59333 11.9867 3.59333 12.24 3.33333L12.5 3.07333C12.76 2.81333 12.76 2.4 12.5 2.14Z"  ></path>
    <path d="M7.33333 3.3C5.12667 3.3 3.33333 5.09333 3.33333 7.3C3.33333 8.73036 4.08683 9.98706 5.21798 10.6942C5.75923 9.12627 7.24809 8 9 8C9.06894 8 9.13748 8.00175 9.20557 8.00519C9.49435 6.98028 10.0727 6.07673 10.8468 5.38847C10.1679 4.14492 8.84799 3.3 7.33333 3.3Z"  ></path>
    <path d="M2.16667 12.46C2.42667 12.72 2.84667 12.72 3.10667 12.46L3.36667 12.2C3.62667 11.94 3.62 11.52 3.36667 11.2667L3.36 11.26C3.1 11 2.68 11 2.42 11.26L2.16 11.52C1.90667 11.7867 1.90667 12.2 2.16667 12.46Z"  ></path>
    <path d="M19.0089 19H20C22.2091 19 24 17.2091 24 15C24 13.1238 22.7083 11.5494 20.9657 11.1174C20.9884 10.9147 21 10.7087 21 10.5C21 7.46243 18.5376 5 15.5 5C12.9806 5 10.8568 6.69403 10.2056 9.00519C10.1375 9.00175 10.0689 9 10 9C7.79086 9 6 10.7909 6 13C6 13.0568 6.00118 13.1133 6.00352 13.1695C4.83649 13.5803 4 14.6925 4 16C4 17.6569 5.34315 19 7 19H11.8482L16.1318 11.5039C16.6405 10.6135 18 10.9745 18 12V16H19C19.7678 16 20.2492 16.8295 19.8682 17.4961L19.0089 19Z"  ></path>
    <path d="M13 19L17 12V17H19L15 24V19H13Z"  ></path>
    <path d="M11.5517 24H10.4483L10.5586 22.7778L9.55172 23.4861L9 22.5139L10.1034 22L9 21.4861L9.55172 20.5139L10.5586 21.2222L10.4483 20H11.5517L11.4414 21.2222L12.4483 20.5139L13 21.4861L11.8966 22L13 22.5139L12.4483 23.4861L11.4414 22.7778L11.5517 24Z"  ></path>
  </symbol>
  <symbol    xmlns="http://www.w3.org/2000/svg" viewBox="0 0 24 24" id="395">
    <path d="M18 17H17.0089L17.8682 15.4961C18.2492 14.8295 17.7678 14 17 14H16V10C16 8.97454 14.6405 8.61351 14.1318 9.50386L9.84825 17H5C3.34315 17 2 15.6569 2 14C2 12.6925 2.83649 11.5803 4.00352 11.1695C4.00118 11.1133 4 11.0568 4 11C4 8.79086 5.79086 7 8 7C8.06894 7 8.13748 7.00174 8.20557 7.00519C8.85678 4.69403 10.9806 3 13.5 3C16.5376 3 19 5.46243 19 8.5C19 8.70871 18.9884 8.9147 18.9657 9.11736C20.7083 9.54938 22 11.1238 22 13C22 15.2091 20.2091 17 18 17Z"  ></path>
    <path d="M11 17H13V22L17 15H15V10L11 17Z"  ></path>
    <path d="M9.55172 22H8.44828L8.55862 20.7778L7.55172 21.4861L7 20.5139L8.10345 20L7 19.4861L7.55172 18.5139L8.55862 19.2222L8.44828 18H9.55172L9.44138 19.2222L10.4483 18.5139L11 19.4861L9.89655 20L11 20.5139L10.4483 21.4861L9.44138 20.7778L9.55172 22Z"  ></path>
  </symbol>
</svg>